<svg width="24" height="24" viewBox="0 0 24 24" fill="none" xmlns="http://www.w3.org/2000/svg">
<g clip-path="url(#clip0)">
<path d="M18.6628 7.03818C19.5087 6.35585 20.2202 5.50415 20.8 4.52348V4.52249C20.0261 4.90748 19.2027 5.16348 18.343 5.28754C19.227 4.68791 19.9021 3.74563 20.2193 2.61037C19.3951 3.16865 18.4851 3.56249 17.5153 3.78305C16.7327 2.83585 15.6173 2.25 14.4005 2.25C12.0397 2.25 10.1391 4.42698 10.1391 7.09529C10.1391 7.47929 10.1677 7.84852 10.2379 8.20003C6.69327 8.00311 3.55593 6.07326 1.4482 3.13222C1.08073 3.85788 0.864067 4.68791 0.864067 5.58095C0.864067 7.25874 1.62413 8.74551 2.7586 9.60705C2.07307 9.59228 1.4014 9.36582 0.832 9.01037V9.06354C0.832 11.4178 2.30967 13.3732 4.2484 13.8242C3.90087 13.9325 3.523 13.9837 3.1304 13.9837C2.8574 13.9837 2.5818 13.9659 2.32353 13.901C2.8756 15.819 4.44427 17.2299 6.3076 17.2762C4.8568 18.5651 3.01427 19.3419 1.02007 19.3419C0.6708 19.3419 0.3354 19.3242 0 19.276C1.88933 20.6594 4.12707 21.45 6.5416 21.45C14.0669 21.45 18.9713 14.3174 18.6628 7.03818Z" fill="white"/>
</g>
<defs>
<clipPath id="clip0">
<rect width="24" height="24" fill="white"/>
</clipPath>
</defs>
</svg>
