<svg width="189" height="15" viewBox="0 0 189 15" fill="none" xmlns="http://www.w3.org/2000/svg">
<path d="M8.5 0.738V2.885H2.971V6.286H7.208V8.395H2.971V14H0.311V0.738H8.5ZM11.6022 8.699C11.6022 7.635 11.8112 6.69133 12.2292 5.868C12.6599 5.04467 13.2362 4.41133 13.9582 3.968C14.6929 3.52467 15.5099 3.303 16.4092 3.303C17.1945 3.303 17.8785 3.46133 18.4612 3.778C19.0565 4.09467 19.5315 4.49367 19.8862 4.975V3.474H22.5652V14H19.8862V12.461C19.5442 12.955 19.0692 13.3667 18.4612 13.696C17.8659 14.0127 17.1755 14.171 16.3902 14.171C15.5035 14.171 14.6929 13.943 13.9582 13.487C13.2362 13.031 12.6599 12.3913 12.2292 11.568C11.8112 10.732 11.6022 9.77567 11.6022 8.699ZM19.8862 8.737C19.8862 8.091 19.7595 7.54 19.5062 7.084C19.2529 6.61533 18.9109 6.26067 18.4802 6.02C18.0495 5.76667 17.5872 5.64 17.0932 5.64C16.5992 5.64 16.1432 5.76033 15.7252 6.001C15.3072 6.24167 14.9652 6.59633 14.6992 7.065C14.4459 7.521 14.3192 8.06567 14.3192 8.699C14.3192 9.33233 14.4459 9.88967 14.6992 10.371C14.9652 10.8397 15.3072 11.2007 15.7252 11.454C16.1559 11.7073 16.6119 11.834 17.0932 11.834C17.5872 11.834 18.0495 11.7137 18.4802 11.473C18.9109 11.2197 19.2529 10.865 19.5062 10.409C19.7595 9.94033 19.8862 9.383 19.8862 8.737ZM29.7231 5.108C30.0651 4.55067 30.5085 4.11367 31.0531 3.797C31.6105 3.48033 32.2438 3.322 32.9531 3.322V6.115H32.2501C31.4141 6.115 30.7808 6.31133 30.3501 6.704C29.9321 7.09667 29.7231 7.78067 29.7231 8.756V14H27.0631V3.474H29.7231V5.108ZM49.7168 3.322C51.0088 3.322 52.0475 3.721 52.8328 4.519C53.6308 5.30433 54.0298 6.40633 54.0298 7.825V14H51.3698V8.186C51.3698 7.36267 51.1608 6.73567 50.7428 6.305C50.3248 5.86167 49.7548 5.64 49.0328 5.64C48.3108 5.64 47.7345 5.86167 47.3038 6.305C46.8858 6.73567 46.6768 7.36267 46.6768 8.186V14H44.0168V8.186C44.0168 7.36267 43.8078 6.73567 43.3898 6.305C42.9718 5.86167 42.4018 5.64 41.6798 5.64C40.9451 5.64 40.3625 5.86167 39.9318 6.305C39.5138 6.73567 39.3048 7.36267 39.3048 8.186V14H36.6448V3.474H39.3048V4.747C39.6468 4.30367 40.0838 3.95533 40.6158 3.702C41.1605 3.44867 41.7558 3.322 42.4018 3.322C43.2251 3.322 43.9598 3.49933 44.6058 3.854C45.2518 4.196 45.7521 4.69 46.1068 5.336C46.4488 4.728 46.9428 4.24033 47.5888 3.873C48.2475 3.50567 48.9568 3.322 49.7168 3.322ZM68.239 8.509C68.239 8.889 68.2136 9.231 68.163 9.535H60.468C60.5313 10.295 60.7973 10.8903 61.266 11.321C61.7346 11.7517 62.311 11.967 62.995 11.967C63.983 11.967 64.686 11.5427 65.104 10.694H67.973C67.669 11.7073 67.0863 12.5433 66.225 13.202C65.3636 13.848 64.306 14.171 63.052 14.171C62.0386 14.171 61.1266 13.9493 60.316 13.506C59.518 13.05 58.891 12.4103 58.435 11.587C57.9916 10.7637 57.77 9.81367 57.77 8.737C57.77 7.64767 57.9916 6.69133 58.435 5.868C58.8783 5.04467 59.499 4.41133 60.297 3.968C61.095 3.52467 62.0133 3.303 63.052 3.303C64.0526 3.303 64.9456 3.51833 65.731 3.949C66.529 4.37967 67.1433 4.994 67.574 5.792C68.0173 6.57733 68.239 7.483 68.239 8.509ZM65.484 7.749C65.4713 7.065 65.2243 6.52033 64.743 6.115C64.2616 5.697 63.6726 5.488 62.976 5.488C62.3173 5.488 61.76 5.69067 61.304 6.096C60.8606 6.48867 60.5883 7.03967 60.487 7.749H65.484ZM74.7405 5.108C75.0825 4.55067 75.5259 4.11367 76.0705 3.797C76.6279 3.48033 77.2612 3.322 77.9705 3.322V6.115H77.2675C76.4315 6.115 75.7982 6.31133 75.3675 6.704C74.9495 7.09667 74.7405 7.78067 74.7405 8.756V14H72.0805V3.474H74.7405V5.108ZM85.6902 14.171C84.8288 14.171 84.0562 14.019 83.3722 13.715C82.6882 13.3983 82.1435 12.974 81.7382 12.442C81.3455 11.91 81.1302 11.321 81.0922 10.675H83.7712C83.8218 11.0803 84.0182 11.416 84.3602 11.682C84.7148 11.948 85.1518 12.081 85.6712 12.081C86.1778 12.081 86.5705 11.9797 86.8492 11.777C87.1405 11.5743 87.2862 11.3147 87.2862 10.998C87.2862 10.656 87.1088 10.4027 86.7542 10.238C86.4122 10.0607 85.8612 9.87067 85.1012 9.668C84.3158 9.478 83.6698 9.28167 83.1632 9.079C82.6692 8.87633 82.2385 8.566 81.8712 8.148C81.5165 7.73 81.3392 7.16633 81.3392 6.457C81.3392 5.87433 81.5038 5.34233 81.8332 4.861C82.1752 4.37967 82.6565 3.99967 83.2772 3.721C83.9105 3.44233 84.6515 3.303 85.5002 3.303C86.7542 3.303 87.7548 3.61967 88.5022 4.253C89.2495 4.87367 89.6612 5.716 89.7372 6.78H87.1912C87.1532 6.362 86.9758 6.03267 86.6592 5.792C86.3552 5.53867 85.9435 5.412 85.4242 5.412C84.9428 5.412 84.5692 5.50067 84.3032 5.678C84.0498 5.85533 83.9232 6.10233 83.9232 6.419C83.9232 6.77367 84.1005 7.046 84.4552 7.236C84.8098 7.41333 85.3608 7.597 86.1082 7.787C86.8682 7.977 87.4952 8.17333 87.9892 8.376C88.4832 8.57867 88.9075 8.89533 89.2622 9.326C89.6295 9.744 89.8195 10.3013 89.8322 10.998C89.8322 11.606 89.6612 12.1507 89.3192 12.632C88.9898 13.1133 88.5085 13.4933 87.8752 13.772C87.2545 14.038 86.5262 14.171 85.6902 14.171Z" fill="#94BF06"/>
<path d="M95.0937 14.133C94.6124 14.133 94.2134 13.9873 93.8967 13.696C93.5927 13.392 93.4407 13.0183 93.4407 12.575C93.4407 12.1317 93.5927 11.7643 93.8967 11.473C94.2134 11.169 94.6124 11.017 95.0937 11.017C95.5624 11.017 95.9487 11.169 96.2527 11.473C96.5567 11.7643 96.7087 12.1317 96.7087 12.575C96.7087 13.0183 96.5567 13.392 96.2527 13.696C95.9487 13.9873 95.5624 14.133 95.0937 14.133ZM100.352 8.813C100.352 7.73633 100.568 6.799 100.998 6.001C101.429 5.19033 102.024 4.56967 102.784 4.139C103.544 3.69567 104.412 3.474 105.387 3.474C106.667 3.474 107.718 3.79067 108.541 4.424C109.377 5.05733 109.916 5.91867 110.156 7.008H108.731C108.554 6.26067 108.168 5.678 107.572 5.26C106.99 4.82933 106.261 4.614 105.387 4.614C104.691 4.614 104.064 4.77233 103.506 5.089C102.949 5.40567 102.506 5.88067 102.176 6.514C101.86 7.13467 101.701 7.901 101.701 8.813C101.701 9.725 101.86 10.4977 102.176 11.131C102.506 11.7643 102.949 12.2393 103.506 12.556C104.064 12.8727 104.691 13.031 105.387 13.031C106.261 13.031 106.99 12.822 107.572 12.404C108.168 11.9733 108.554 11.378 108.731 10.618H110.156C109.916 11.682 109.377 12.537 108.541 13.183C107.705 13.829 106.654 14.152 105.387 14.152C104.412 14.152 103.544 13.9367 102.784 13.506C102.024 13.0627 101.429 12.442 100.998 11.644C100.568 10.8333 100.352 9.88967 100.352 8.813ZM119.054 14.152C118.078 14.152 117.198 13.9367 116.413 13.506C115.64 13.0627 115.026 12.442 114.57 11.644C114.126 10.8333 113.905 9.88967 113.905 8.813C113.905 7.73633 114.133 6.799 114.589 6.001C115.045 5.19033 115.665 4.56967 116.451 4.139C117.236 3.69567 118.116 3.474 119.092 3.474C120.067 3.474 120.947 3.69567 121.733 4.139C122.531 4.56967 123.151 5.19033 123.595 6.001C124.051 6.799 124.279 7.73633 124.279 8.813C124.279 9.877 124.051 10.8143 123.595 11.625C123.139 12.4357 122.512 13.0627 121.714 13.506C120.916 13.9367 120.029 14.152 119.054 14.152ZM119.054 12.993C119.738 12.993 120.371 12.841 120.954 12.537C121.536 12.2203 122.005 11.7517 122.36 11.131C122.727 10.4977 122.911 9.725 122.911 8.813C122.911 7.901 122.733 7.13467 122.379 6.514C122.024 5.88067 121.555 5.412 120.973 5.108C120.39 4.79133 119.757 4.633 119.073 4.633C118.389 4.633 117.755 4.79133 117.173 5.108C116.59 5.412 116.121 5.88067 115.767 6.514C115.425 7.13467 115.254 7.901 115.254 8.813C115.254 9.725 115.425 10.4977 115.767 11.131C116.121 11.7517 116.584 12.2203 117.154 12.537C117.736 12.841 118.37 12.993 119.054 12.993ZM133.467 3.436C134.708 3.436 135.722 3.82233 136.507 4.595C137.292 5.355 137.685 6.46333 137.685 7.92V14H136.374V8.072C136.374 6.94467 136.089 6.08333 135.519 5.488C134.962 4.89267 134.195 4.595 133.22 4.595C132.219 4.595 131.421 4.91167 130.826 5.545C130.231 6.17833 129.933 7.10933 129.933 8.338V14H128.603V3.626H129.933V5.393C130.262 4.75967 130.737 4.27833 131.358 3.949C131.979 3.607 132.682 3.436 133.467 3.436ZM147.39 3.436C148.632 3.436 149.645 3.82233 150.43 4.595C151.216 5.355 151.608 6.46333 151.608 7.92V14H150.297V8.072C150.297 6.94467 150.012 6.08333 149.442 5.488C148.885 4.89267 148.119 4.595 147.143 4.595C146.143 4.595 145.345 4.91167 144.749 5.545C144.154 6.17833 143.856 7.10933 143.856 8.338V14H142.526V3.626H143.856V5.393C144.186 4.75967 144.661 4.27833 145.281 3.949C145.902 3.607 146.605 3.436 147.39 3.436ZM165.836 8.281C165.836 8.737 165.823 9.08533 165.798 9.326H157.191C157.229 10.1113 157.419 10.7827 157.761 11.34C158.103 11.8973 158.553 12.3217 159.11 12.613C159.667 12.8917 160.275 13.031 160.934 13.031C161.795 13.031 162.517 12.822 163.1 12.404C163.695 11.986 164.088 11.4223 164.278 10.713H165.684C165.431 11.7263 164.886 12.556 164.05 13.202C163.227 13.8353 162.188 14.152 160.934 14.152C159.959 14.152 159.085 13.9367 158.312 13.506C157.539 13.0627 156.931 12.442 156.488 11.644C156.057 10.8333 155.842 9.88967 155.842 8.813C155.842 7.73633 156.057 6.79267 156.488 5.982C156.919 5.17133 157.52 4.55067 158.293 4.12C159.066 3.68933 159.946 3.474 160.934 3.474C161.922 3.474 162.783 3.68933 163.518 4.12C164.265 4.55067 164.835 5.13333 165.228 5.868C165.633 6.59 165.836 7.39433 165.836 8.281ZM164.487 8.243C164.5 7.47033 164.341 6.81167 164.012 6.267C163.695 5.72233 163.258 5.31067 162.701 5.032C162.144 4.75333 161.536 4.614 160.877 4.614C159.889 4.614 159.047 4.93067 158.35 5.564C157.653 6.19733 157.267 7.09033 157.191 8.243H164.487ZM169.561 8.813C169.561 7.73633 169.777 6.799 170.207 6.001C170.638 5.19033 171.233 4.56967 171.993 4.139C172.753 3.69567 173.621 3.474 174.596 3.474C175.876 3.474 176.927 3.79067 177.75 4.424C178.586 5.05733 179.125 5.91867 179.365 7.008H177.94C177.763 6.26067 177.377 5.678 176.781 5.26C176.199 4.82933 175.47 4.614 174.596 4.614C173.9 4.614 173.273 4.77233 172.715 5.089C172.158 5.40567 171.715 5.88067 171.385 6.514C171.069 7.13467 170.91 7.901 170.91 8.813C170.91 9.725 171.069 10.4977 171.385 11.131C171.715 11.7643 172.158 12.2393 172.715 12.556C173.273 12.8727 173.9 13.031 174.596 13.031C175.47 13.031 176.199 12.822 176.781 12.404C177.377 11.9733 177.763 11.378 177.94 10.618H179.365C179.125 11.682 178.586 12.537 177.75 13.183C176.914 13.829 175.863 14.152 174.596 14.152C173.621 14.152 172.753 13.9367 171.993 13.506C171.233 13.0627 170.638 12.442 170.207 11.644C169.777 10.8333 169.561 9.88967 169.561 8.813ZM185.451 4.747V11.188C185.451 11.8213 185.571 12.2583 185.812 12.499C186.052 12.7397 186.477 12.86 187.085 12.86H188.301V14H186.876C185.938 14 185.242 13.7847 184.786 13.354C184.33 12.9107 184.102 12.1887 184.102 11.188V4.747H182.658V3.626H184.102V1.023H185.451V3.626H188.301V4.747H185.451Z" fill="black"/>
</svg>
