<svg width="645" height="500" viewBox="0 0 645 500" fill="none" xmlns="http://www.w3.org/2000/svg">
<g clip-path="url(#clip0)">
<path d="M464.148 296.618L469.222 293.342C469.705 293.022 470.18 292.681 470.669 292.361C459.787 290.403 449.869 284.617 442.559 275.959C435.249 267.301 430.984 256.291 430.471 244.752C430.098 236.816 431.532 228.901 434.655 221.658C437.563 214.882 441.856 208.855 447.233 204.003C452.609 199.151 458.938 195.592 465.772 193.576L465.52 214.467L476.49 191.729C476.535 191.721 476.581 191.721 476.626 191.729C482.983 191.418 489.336 192.421 495.323 194.679C501.31 196.937 506.812 200.407 511.517 204.89C516.222 209.373 520.037 214.781 522.743 220.806C525.45 226.832 526.996 233.356 527.292 240.006C527.333 240.972 527.292 241.924 527.292 242.848C531.109 238.293 534.574 233.411 536.869 228.061C541.516 217.224 541.624 204.953 541.237 190.038C540.503 160.478 539.288 130.697 537.698 101.002C526.244 99.6712 515.619 94.1114 507.732 85.3213C499.845 76.5313 495.213 65.0871 494.667 53.0448C494.599 51.4887 494.62 49.9609 494.667 48.4403C494.667 48.0637 494.667 47.68 494.722 47.3034C494.817 45.8325 494.946 44.3758 495.163 42.9404C495.163 42.6988 495.245 42.4714 495.285 42.2298C495.485 41.0124 495.722 39.8091 495.999 38.6201C496.107 38.1795 496.209 37.7318 496.325 37.2913C496.664 35.998 497.004 34.7261 497.473 33.4684C497.615 33.0491 497.785 32.6441 497.935 32.2319C498.281 31.3082 498.654 30.3986 499.048 29.4962C499.259 29.0201 499.463 28.5511 499.687 28.0751C499.741 27.9543 499.789 27.8334 499.85 27.7126C504.964 17.1452 513.457 8.78656 523.851 4.08973C534.245 -0.607099 545.884 -1.34516 556.744 2.00385L556.418 29.1907L567.286 6.73632C576.201 12.0743 583.251 20.2542 587.406 30.0813C591.56 39.9083 592.603 50.8677 590.381 61.3586H590.435C590.361 61.721 590.252 62.0692 590.171 62.4245C590.021 63.0925 589.858 63.7533 589.681 64.4141C589.451 65.2597 589.192 66.0911 588.927 66.9225C588.724 67.5407 588.527 68.1731 588.303 68.7842C587.977 69.6795 587.623 70.5536 587.229 71.4276C587.012 71.9392 586.815 72.4579 586.55 72.9624C585.93 74.2699 585.25 75.5489 584.512 76.7996C584.261 77.233 583.976 77.6451 583.711 78.0786C583.195 78.9171 582.672 79.7485 582.108 80.5585C581.761 81.0559 581.388 81.532 581.021 82.0223C580.491 82.7329 579.948 83.4435 579.384 84.0901C578.983 84.5662 578.576 85.0352 578.154 85.5113C577.564 86.165 576.952 86.7974 576.32 87.4227C575.906 87.842 575.485 88.2612 575.05 88.6591C574.337 89.32 573.59 89.9524 572.836 90.5706C572.456 90.8833 572.089 91.2101 571.695 91.5086C570.549 92.3992 569.365 93.2353 568.142 94.0169C567.911 94.159 567.667 94.2798 567.463 94.4219C566.444 95.0544 565.425 95.6441 564.332 96.1984C563.877 96.4329 563.401 96.639 562.932 96.8592C562.056 97.2714 561.173 97.6693 560.27 98.0317C559.747 98.2378 559.21 98.4296 558.673 98.6215C557.784 98.9412 556.88 99.2326 555.956 99.4955C555.413 99.6518 554.876 99.8082 554.326 99.9432C553.335 100.192 552.322 100.398 551.304 100.576C551.236 100.576 551.174 100.576 551.107 100.618C551.777 113.143 552.372 125.676 552.893 138.215C555.782 132.01 559.853 126.489 564.855 121.989C569.857 117.489 575.685 114.105 581.982 112.046C588.279 109.987 594.911 109.295 601.473 110.013C608.034 110.731 614.386 112.844 620.139 116.223L611.574 140.773L629.194 123.073C638.626 132.116 644.244 144.704 644.817 158.076C645.041 162.767 644.627 167.469 643.587 172.039C641.374 181.928 636.37 190.893 629.226 197.772C622.082 204.65 613.127 209.123 603.523 210.611C593.918 212.1 584.108 210.534 575.365 206.118C566.621 201.702 559.348 194.639 554.489 185.845C554.489 187.117 554.578 188.396 554.612 189.668C554.931 202.828 555.332 219.2 549.062 233.824C544.817 243.736 537.977 251.787 531.218 259C526.823 263.696 522.265 268.237 517.592 272.636C512.997 279.09 506.999 284.308 500.095 287.856C492.419 294.043 484.472 299.837 476.253 305.237L471.26 308.605C466.648 311.597 461.92 314.666 457.281 317.843C458.096 317.757 458.905 317.665 459.733 317.629C470.002 317.126 480.159 320.051 488.735 325.981C497.311 331.912 503.863 340.541 507.444 350.622L477.163 376.409L510.446 368.329C510.437 376.902 508.351 385.332 504.383 392.832C500.415 400.332 494.694 406.657 487.755 411.217C480.816 415.777 472.886 418.423 464.705 418.906C456.523 419.39 448.358 417.697 440.972 413.984C441.719 414.965 442.473 415.938 443.221 416.912C444.708 418.852 446.189 420.777 447.636 422.689C467.334 448.788 472.822 473.573 463.062 492.468L451.202 485.76C460.711 467.37 446.447 443.836 437.053 431.429C435.633 429.553 434.18 427.663 432.712 425.744C420.126 409.401 405.862 390.841 406.222 368.095C406.731 333.845 438.581 313.188 464.148 296.618Z" fill="#F2F2F2"/>
<path d="M309.401 500C480.278 500 618.801 493.319 618.801 485.078C618.801 476.837 480.278 470.156 309.401 470.156C138.523 470.156 0 476.837 0 485.078C0 493.319 138.523 500 309.401 500Z" fill="#3F3D56"/>
<path d="M559.36 479.514C561.397 475.599 559.088 470.802 556.452 467.306C553.817 463.81 550.604 460.2 550.672 455.731C550.767 449.336 557.254 445.562 562.443 442.173C566.286 439.655 569.832 436.671 573.006 433.284C574.338 431.98 575.439 430.44 576.259 428.736C577.326 426.235 577.299 423.392 577.231 420.649C577.004 411.526 576.574 402.411 575.94 393.306" stroke="#3F3D56" stroke-width="4" stroke-miterlimit="10"/>
<path d="M585.796 392.823C585.72 391.154 585.245 389.531 584.414 388.103C583.584 386.676 582.424 385.489 581.041 384.651L578.908 389.071L578.97 383.728C577.511 383.27 575.968 383.186 574.472 383.483C572.976 383.779 571.569 384.447 570.371 385.43C569.173 386.413 568.218 387.683 567.587 389.133C566.955 390.583 566.666 392.17 566.743 393.761C566.862 396.399 567.978 398.88 569.845 400.658C570.77 401.538 571.851 402.219 573.028 402.662C574.204 403.105 575.452 403.302 576.701 403.24C577.95 403.179 579.175 402.86 580.306 402.303C581.437 401.747 582.452 400.962 583.294 399.995C584.135 399.027 584.786 397.896 585.21 396.666C585.633 395.435 585.821 394.129 585.762 392.823H585.796Z" fill="#6CFF5F"/>
<path d="M568.794 460.328C567.796 462.357 566.162 463.965 564.165 464.882C562.168 465.8 559.931 465.972 557.827 465.37C555.724 464.767 553.882 463.426 552.612 461.572C551.341 459.718 550.717 457.464 550.847 455.186C550.976 452.909 551.849 450.747 553.321 449.063C554.792 447.379 556.772 446.275 558.929 445.937C561.086 445.598 563.288 446.046 565.167 447.204C567.046 448.362 568.487 450.161 569.249 452.299L563.299 457.365L569.847 455.773C569.848 457.358 569.487 458.919 568.794 460.328Z" fill="#6CFF5F"/>
<path d="M564.087 440.937C562.836 441 561.586 440.803 560.408 440.36C559.23 439.916 558.147 439.233 557.222 438.35C556.296 437.468 555.547 436.402 555.016 435.216C554.486 434.029 554.184 432.745 554.129 431.436C554.054 429.876 554.335 428.319 554.951 426.895C555.522 425.563 556.365 424.377 557.421 423.422C558.478 422.466 559.721 421.765 561.064 421.367L561.017 425.481L563.177 421.005C565.704 420.881 568.173 421.813 570.044 423.595C571.914 425.376 573.03 427.862 573.148 430.505C573.266 433.148 572.376 435.732 570.673 437.688C568.97 439.645 566.593 440.813 564.067 440.937H564.087Z" fill="#6CFF5F"/>
<path d="M587.229 424.799C584.707 424.924 582.241 423.995 580.374 422.217C578.506 420.439 577.39 417.958 577.272 415.32C577.153 412.682 578.041 410.102 579.74 408.148C581.439 406.195 583.811 405.027 586.333 404.903C588.115 404.811 589.887 405.25 591.441 406.168L589.756 411L593.22 407.518C595.079 409.295 596.188 411.772 596.304 414.403C596.348 415.325 596.265 416.249 596.06 417.146C595.584 419.253 594.465 421.141 592.871 422.522C591.278 423.903 589.297 424.703 587.229 424.799Z" fill="#6CFF5F"/>
<path opacity="0.1" d="M584.512 395.452C582.312 395.708 580.172 396.426 577.964 396.568C575.757 396.71 573.332 396.156 571.933 394.358C571.179 393.392 570.805 392.169 570.167 391.118C569.565 390.135 568.742 389.322 567.769 388.751C567.194 390.009 566.878 391.379 566.841 392.773C566.805 394.167 567.049 395.553 567.558 396.842C568.066 398.131 568.829 399.293 569.794 400.254C570.76 401.215 571.908 401.952 573.164 402.419C574.42 402.886 575.756 403.071 577.085 402.963C578.414 402.855 579.706 402.455 580.878 401.791C582.05 401.127 583.075 400.212 583.887 399.107C584.699 398.001 585.28 396.73 585.592 395.374C585.226 395.388 584.866 395.417 584.512 395.452Z" fill="black"/>
<path opacity="0.1" d="M587.229 424.799C585.585 424.886 583.948 424.526 582.477 423.752C581.006 422.979 579.752 421.819 578.838 420.387C577.924 418.955 577.381 417.298 577.263 415.581C577.144 413.863 577.454 412.143 578.161 410.588C578.918 411.122 579.568 411.805 580.077 412.599C580.756 413.672 581.163 414.908 581.965 415.896C583.446 417.722 585.986 418.319 588.289 418.205C590.592 418.091 592.806 417.416 595.081 417.196C595.394 417.196 595.72 417.139 596.039 417.132C595.567 419.238 594.452 421.126 592.862 422.51C591.272 423.893 589.295 424.697 587.229 424.799Z" fill="black"/>
<path opacity="0.1" d="M564.087 440.937C562.836 441 561.586 440.804 560.408 440.36C559.23 439.916 558.147 439.233 557.222 438.35C556.296 437.468 555.547 436.402 555.016 435.216C554.486 434.029 554.184 432.745 554.129 431.436C554.054 429.876 554.335 428.319 554.951 426.896C555.742 427.436 556.432 428.122 556.989 428.921C557.729 430.015 558.191 431.273 559.027 432.282C560.637 434.158 563.34 434.818 565.779 434.755C568.217 434.691 570.411 434.094 572.761 433.909C572.181 435.871 571.037 437.598 569.485 438.856C567.933 440.113 566.048 440.84 564.087 440.937Z" fill="black"/>
<path opacity="0.1" d="M568.794 460.328C568.282 461.522 567.549 462.599 566.638 463.496C565.728 464.394 564.657 465.095 563.487 465.56C562.317 466.025 561.072 466.245 559.821 466.206C558.57 466.167 557.339 465.871 556.198 465.334C555.056 464.798 554.027 464.031 553.169 463.079C552.311 462.126 551.64 461.006 551.196 459.782C550.752 458.558 550.542 457.255 550.579 455.947C550.616 454.638 550.899 453.35 551.412 452.156C552.195 452.701 552.899 453.359 553.504 454.111C554.408 455.269 555.006 456.576 556.058 457.663C558.008 459.66 561.153 460.506 563.951 460.563C565.569 460.585 567.186 460.507 568.794 460.328Z" fill="black"/>
<path d="M544.986 475.002C544.986 475.002 552.506 474.76 554.774 473.069C557.043 471.378 566.322 469.36 566.913 472.074C567.504 474.789 578.222 485.575 569.725 485.618C561.227 485.661 549.986 484.197 547.724 482.776C545.462 481.354 544.986 475.002 544.986 475.002Z" fill="#656380"/>
<path opacity="0.2" d="M569.874 484.673C561.384 484.744 550.135 483.252 547.873 481.831C546.155 480.736 545.462 476.792 545.238 474.973H544.986C544.986 474.973 545.462 481.319 547.703 482.79C549.945 484.261 561.207 485.689 569.704 485.632C572.157 485.632 573.006 484.694 572.958 483.344C572.639 484.147 571.701 484.659 569.874 484.673Z" fill="black"/>
<path d="M132.054 457.593C127.123 448.042 132.733 436.346 139.145 427.833C145.558 419.321 153.41 410.467 153.24 399.616C152.995 384.026 137.182 374.824 124.548 366.56C115.173 360.427 106.525 353.154 98.784 344.894C95.6799 341.576 92.6708 338.037 90.8639 333.802C88.2556 327.706 88.3235 320.777 88.4933 314.098C89.0367 291.833 90.0873 269.611 91.6451 247.431" stroke="#3F3D56" stroke-width="4" stroke-miterlimit="10"/>
<path d="M67.6198 246.216C67.8058 242.149 68.9657 238.195 70.9928 234.719C73.0199 231.242 75.8494 228.354 79.2215 226.32L84.4246 237.085L84.2684 224.053C88.9953 222.596 94.0425 222.748 98.6814 224.488C103.32 226.227 107.311 229.464 110.076 233.73C112.842 237.997 114.24 243.073 114.068 248.225C113.897 253.377 112.164 258.338 109.121 262.393C106.078 266.448 101.882 269.386 97.1389 270.783C92.3955 272.181 87.3503 271.965 82.7319 270.167C78.1135 268.369 74.1607 265.082 71.4444 260.781C68.7281 256.48 67.3887 251.387 67.6198 246.237V246.216Z" fill="#6CFF5F"/>
<path d="M109.068 410.758C111.405 415.522 115.18 419.345 119.807 421.634C124.435 423.923 129.655 424.548 134.657 423.414C139.66 422.28 144.164 419.449 147.47 415.361C150.776 411.274 152.7 406.159 152.941 400.81C153.103 397.448 152.587 394.087 151.426 390.947C149.729 386.342 146.733 382.385 142.834 379.604C138.936 376.823 134.322 375.349 129.603 375.377C124.885 375.406 120.287 376.936 116.42 379.764C112.553 382.592 109.6 386.584 107.954 391.21L122.47 403.56L106.5 399.673C106.494 403.53 107.374 407.332 109.068 410.758Z" fill="#6CFF5F"/>
<path d="M120.541 363.561C126.239 363.834 131.835 361.905 136.262 358.141C140.689 354.378 143.638 349.042 144.549 343.151C145.459 337.26 144.267 331.224 141.198 326.193C138.13 321.162 133.401 317.487 127.91 315.867L128.033 325.879L122.803 314.986H122.741C116.583 314.686 110.563 316.957 106.005 321.299C101.447 325.642 98.725 331.702 98.4376 338.144C98.1503 344.586 100.321 350.884 104.473 355.652C108.624 360.42 114.416 363.268 120.575 363.569L120.541 363.561Z" fill="#6CFF5F"/>
<path d="M64.1216 324.288C67.7197 324.471 71.3094 323.777 74.6072 322.26C77.905 320.744 80.8207 318.446 83.1242 315.549C85.4276 312.651 87.0558 309.233 87.8801 305.565C88.7044 301.896 88.7024 298.077 87.8741 294.41C87.0458 290.742 85.414 287.326 83.1074 284.431C80.8009 281.537 77.8827 279.242 74.5833 277.729C71.2838 276.217 67.6935 275.527 64.0955 275.714C60.4976 275.902 56.9905 276.962 53.8513 278.81L57.9268 290.585L49.5108 282.079C47.261 284.221 45.4371 286.806 44.1433 289.686C42.8496 292.566 42.1114 295.684 41.9711 298.863C41.8632 301.112 42.0622 303.366 42.562 305.557C43.7174 310.708 46.4478 315.324 50.3388 318.705C54.2298 322.085 59.069 324.046 64.1216 324.288Z" fill="#6CFF5F"/>
<path opacity="0.1" d="M70.7444 252.697C76.1105 253.315 81.3272 255.056 86.7069 255.404C92.0866 255.752 98.0029 254.409 101.406 250.032C103.24 247.673 104.157 244.688 105.706 242.116C107.173 239.719 109.185 237.74 111.561 236.353C113.041 239.435 113.877 242.81 114.014 246.255C114.152 249.7 113.587 253.137 112.358 256.336C111.129 259.536 109.263 262.425 106.885 264.813C104.506 267.201 101.67 269.032 98.5635 270.185C95.457 271.338 92.1516 271.787 88.8667 271.501C85.5817 271.216 82.3924 270.203 79.5103 268.53C76.6282 266.856 74.1193 264.561 72.1501 261.795C70.1808 259.03 68.7964 255.858 68.0885 252.491C68.9919 252.533 69.8749 252.597 70.7444 252.697Z" fill="black"/>
<path opacity="0.1" d="M64.1216 324.288C68.1267 324.481 72.1116 323.588 75.6894 321.695C79.2673 319.802 82.3165 316.973 84.5413 313.484C86.7661 309.995 88.0909 305.963 88.387 301.78C88.6831 297.597 87.9405 293.405 86.2314 289.611C84.386 290.909 82.7989 292.57 81.5581 294.5C79.9007 297.115 78.9022 300.135 76.9527 302.537C73.3323 306.985 67.1511 308.442 61.5404 308.179C55.9298 307.916 50.5161 306.239 44.9327 305.706C44.1583 305.635 43.3704 305.578 42.5892 305.557C43.7433 310.704 46.4696 315.317 50.3552 318.697C54.2408 322.077 59.0737 324.039 64.1216 324.288Z" fill="black"/>
<path opacity="0.1" d="M120.541 363.561C124.507 363.756 128.454 362.885 132.007 361.03C135.56 359.175 138.599 356.399 140.834 352.967C143.07 349.534 144.427 345.56 144.777 341.422C145.127 337.285 144.458 333.123 142.834 329.333C140.92 330.663 139.255 332.349 137.923 334.307C136.116 336.972 134.988 340.041 132.876 342.5C128.957 347.069 122.368 348.682 116.424 348.533C110.671 348.405 105.128 346.927 99.4089 346.465C100.825 351.241 103.613 355.444 107.394 358.504C111.175 361.563 115.766 363.329 120.541 363.561Z" fill="black"/>
<path opacity="0.1" d="M109.068 410.758C111.405 415.522 115.18 419.345 119.807 421.634C124.435 423.923 129.655 424.548 134.657 423.414C139.66 422.28 144.164 419.449 147.47 415.362C150.776 411.274 152.699 406.159 152.941 400.81C153.103 397.448 152.587 394.087 151.426 390.947C149.514 392.261 147.797 393.863 146.332 395.701C144.124 398.543 142.664 401.713 140.11 404.342C135.355 409.216 127.686 411.234 120.86 411.448C116.92 411.462 112.982 411.232 109.068 410.758Z" fill="black"/>
<path d="M292.908 471.79L203.247 490.976L201.209 490.762L122.415 482.449V377.993L218.869 360.939L288.833 369.466L288.853 369.928L288.86 370.156L292.908 471.79Z" fill="#0C9200"/>
<path opacity="0.1" d="M292.908 471.79L203.247 490.976L201.209 490.762V383.678L288.853 369.928L292.908 471.79Z" fill="black"/>
<path opacity="0.05" d="M288.86 370.156L288.833 370.177L201.209 383.678L122.415 377.993L218.869 360.939L288.833 369.466L288.853 369.928L288.86 370.156Z" fill="black"/>
<path d="M391.4 476.054L301.739 495.239L299.701 495.026L220.907 486.712V382.257L317.362 365.203L387.325 373.73L387.345 374.192L387.352 374.419L391.4 476.054Z" fill="#3F3D56"/>
<path opacity="0.1" d="M391.4 476.053L301.739 495.239L299.701 495.026V387.942L387.345 374.192L391.4 476.053Z" fill="black"/>
<path opacity="0.05" d="M387.352 374.419L387.325 374.44L299.701 387.941L220.907 382.257L317.362 365.203L387.325 373.73L387.345 374.192L387.352 374.419Z" fill="black"/>
<path d="M329.588 373.73L239.926 392.916L237.889 392.702L159.095 384.389V279.933L255.549 262.879L325.513 271.406L325.533 271.868L325.54 272.096L329.588 373.73Z" fill="#3F3D56"/>
<path opacity="0.1" d="M329.588 373.73L239.926 392.916L237.889 392.702V285.618L325.533 271.868L329.588 373.73Z" fill="black"/>
<path opacity="0.05" d="M325.54 272.096L325.513 272.117L237.889 285.618L159.095 279.933L255.549 262.879L325.513 271.406L325.533 271.868L325.54 272.096Z" fill="black"/>
<path d="M380.532 378.107L333.738 388.126L332.672 388.012L291.55 383.671V329.155L341.889 320.251L378.406 324.707L378.42 324.948V325.062L380.532 378.107Z" fill="#3F3D56"/>
<path opacity="0.1" d="M380.532 378.107L333.738 388.126L332.672 388.013V332.125L378.42 324.948L380.532 378.107Z" fill="black"/>
<path opacity="0.05" d="M378.42 325.062L378.406 325.076L332.672 332.125L291.55 329.155L341.889 320.251L378.406 324.707L378.42 324.948V325.062Z" fill="black"/>
<path d="M254.87 272.23L208.076 282.243L207.01 282.136L165.888 277.794V223.279L216.227 214.375L252.744 218.83L252.758 219.072V219.186L254.87 272.23Z" fill="#3F3D56"/>
<path opacity="0.1" d="M254.87 272.231L208.076 282.243L207.01 282.136V226.249L252.757 219.072L254.87 272.231Z" fill="black"/>
<path opacity="0.05" d="M252.758 219.186L252.744 219.2L207.01 226.249L165.888 223.279L216.227 214.375L252.744 218.83L252.758 219.072V219.186Z" fill="black"/>
<path d="M337.06 270.099L290.266 280.111L289.2 280.004L248.078 275.663V221.147L298.417 212.243L334.934 216.699L334.947 216.94V217.054L337.06 270.099Z" fill="#0C9200"/>
<path opacity="0.1" d="M337.06 270.099L290.266 280.111L289.2 280.004V224.117L334.947 216.94L337.06 270.099Z" fill="black"/>
<path opacity="0.05" d="M334.947 217.054L334.934 217.068L289.2 224.117L248.078 221.147L298.417 212.243L334.934 216.699L334.947 216.94V217.054Z" fill="black"/>
<path d="M361.513 215.384L314.719 225.396L313.653 225.29L272.531 220.948V166.432L322.87 157.529L359.387 161.984L359.401 162.226V162.339L361.513 215.384Z" fill="#3F3D56"/>
<path opacity="0.1" d="M361.513 215.384L314.719 225.396L313.653 225.29V169.402L359.401 162.226L361.513 215.384Z" fill="black"/>
<path opacity="0.05" d="M359.401 162.339L359.387 162.353L313.653 169.402L272.531 166.432L322.87 157.529L359.387 161.984L359.401 162.226V162.339Z" fill="black"/>
<path d="M393.384 103.937C392.888 108.555 389.519 112.279 388.269 116.727C386.394 123.442 389.627 130.654 394.083 135.913C397.674 140.091 402.022 143.482 406.875 145.89C411.728 148.297 416.989 149.674 422.354 149.94C423.93 150.081 425.517 149.9 427.027 149.407C428.372 148.834 429.583 147.967 430.58 146.863C433.921 143.345 435.722 138.478 436.435 133.568C437.148 128.658 436.876 123.662 436.598 118.71C436.597 117.685 436.418 116.668 436.068 115.711C435.613 114.8 434.987 113.995 434.227 113.345C431.818 111.029 429.163 109.009 426.314 107.326C425.091 106.615 423.78 105.905 422.999 104.676C422.463 103.697 422.115 102.618 421.973 101.499L421.097 96.8379C420.942 95.4939 420.504 94.2026 419.813 93.0576C418.271 90.8832 415.317 90.5848 412.729 90.4782L403.219 90.0874C400.264 89.9666 396.379 89.0783 393.492 89.6894C390.775 90.2508 391.692 92.8515 392.181 95.2106C392.889 98.0639 393.292 100.99 393.384 103.937Z" fill="#FFC0C6"/>
<path opacity="0.1" d="M393.384 103.937C392.888 108.555 389.519 112.279 388.269 116.727C386.394 123.442 389.627 130.654 394.083 135.913C397.674 140.091 402.022 143.482 406.875 145.89C411.728 148.297 416.989 149.674 422.354 149.94C423.93 150.081 425.517 149.9 427.027 149.407C428.372 148.834 429.583 147.967 430.58 146.863C433.921 143.345 435.722 138.478 436.435 133.568C437.148 128.658 436.876 123.662 436.598 118.71C436.597 117.685 436.418 116.668 436.068 115.711C435.613 114.8 434.987 113.995 434.227 113.345C431.818 111.029 429.163 109.009 426.314 107.326C425.091 106.615 423.78 105.905 422.999 104.676C422.463 103.697 422.115 102.618 421.973 101.499L421.097 96.8379C420.942 95.4939 420.504 94.2026 419.813 93.0576C418.271 90.8832 415.317 90.5848 412.729 90.4782L403.219 90.0874C400.264 89.9666 396.379 89.0783 393.492 89.6894C390.775 90.2508 391.692 92.8515 392.181 95.2106C392.889 98.0639 393.292 100.99 393.384 103.937Z" fill="black"/>
<path d="M453.776 311.966L449.741 358.239C448.689 370.376 447.615 382.562 445.55 394.543C444.871 398.671 444.002 402.778 443.01 406.85C440.252 418.155 436.251 429.205 434.961 440.795C434.92 441.128 434.886 441.505 434.852 441.811C434.587 444.369 434.356 446.955 433.494 449.343C432.814 451.112 431.857 452.725 431.157 454.473C429.799 457.969 429.581 461.835 429.411 465.622C424.515 462.731 419.153 460.804 413.592 459.938C410.874 459.518 407.92 459.227 406.12 457.095C404.082 454.779 404.32 451.233 404.659 448.121C405.728 438.457 406.792 428.798 407.852 419.143C408.205 414.989 408.887 410.872 409.89 406.836C410.256 405.493 410.698 404.171 411.146 402.849C411.764 401.03 412.389 399.211 412.858 397.342C413.508 394.34 413.957 391.294 414.203 388.226C415.296 378.505 416.614 368.806 417.769 359.092L417.83 358.58C419.562 343.857 420.88 329.063 420.5 314.233C420.445 312.037 420.357 309.841 420.221 307.639C420.031 304.448 419.752 302.757 422.259 300.76C425.051 298.557 428.725 297.016 431.918 295.573C433.636 294.791 452.56 287.757 452.975 289.306C453.853 292.596 454.31 295.994 454.333 299.41C454.372 303.603 454.186 307.795 453.776 311.966Z" fill="#605D82"/>
<path opacity="0.1" d="M445.55 394.543C444.871 398.671 444.002 402.778 443.01 406.85C440.252 418.155 436.251 429.205 434.961 440.794C434.92 441.128 434.886 441.505 434.852 441.811C426.416 429.205 419.311 415.647 411.078 402.906C411.696 401.087 412.321 399.268 412.79 397.399C413.465 394.38 413.937 391.314 414.203 388.226C415.296 378.505 416.614 368.806 417.769 359.092L417.83 358.58C418.307 360.642 418.99 362.645 419.868 364.556C425.397 376.309 438.534 382.25 444.959 393.498C445.172 393.849 445.369 394.197 445.55 394.543Z" fill="black"/>
<path d="M377.095 291.21C377.374 300.632 378.814 309.977 380.254 319.285L383.222 338.471C384.845 348.987 386.544 359.71 391.298 369.125C394.858 376.174 399.979 382.186 404.618 388.503C416.016 404.036 424.582 421.637 435.389 437.625C438.534 442.272 443.024 447.303 448.383 446.33C451.901 445.697 454.455 442.628 457.213 440.269C460.474 437.483 464.4 435.444 466.967 431.948C469.535 428.452 470.038 422.653 466.56 420.166C465.371 419.321 463.924 419.001 462.579 418.461C457.193 416.329 453.701 410.815 451.487 405.244C449.273 399.673 447.921 393.697 444.966 388.517C438.54 377.269 425.397 371.328 419.868 359.568C416.77 352.988 416.471 345.356 416.241 338.059L415.636 319.363C415.568 317.317 415.52 315.192 416.315 313.323C418.428 308.349 424.813 307.88 429.989 307.248C435.858 306.531 441.545 304.655 446.746 301.72C449.728 300.036 452.635 297.89 454.218 294.763C455.671 291.921 455.868 288.574 456.038 285.348L457.831 251.46C457.988 248.547 458.123 245.527 457.152 242.798C454.686 235.934 446.399 233.689 439.396 234.016C426.368 234.627 414.345 240.489 402.037 244.454C398.987 245.435 395.924 246.316 392.779 246.976C390.062 247.552 386.666 247.318 384.057 248.241C379.384 249.89 379.5 260.591 378.841 265.025C377.481 273.678 376.897 282.444 377.095 291.21Z" fill="#605D82"/>
<path d="M446.617 447.765C447.765 448.98 448.138 450.757 448.437 452.434C450.098 461.74 450.961 471.184 451.018 480.651C450.944 481.534 451.111 482.421 451.501 483.209C451.826 483.676 452.265 484.043 452.771 484.275C456.092 485.93 459.944 483.621 462.715 481.084C467.844 476.387 472.184 470.077 472.476 462.95C472.551 461.117 472.354 459.262 472.659 457.45C473.108 454.764 474.609 452.427 475.927 450.082C478.181 446.085 480.004 441.838 481.361 437.419C481.863 435.756 482.203 433.667 480.953 432.509C480.515 432.145 480.015 431.873 479.479 431.706L464.468 425.879C463.163 425.375 459.93 434.065 459.421 435.017C458.164 437.341 456.914 438.656 454.394 439.196C451.874 439.736 448.763 438.954 446.359 440.297C442.283 442.564 444.314 445.342 446.617 447.765Z" fill="#535070"/>
<path d="M423.468 453.13C423.189 452.55 422.801 452.035 422.326 451.617C421.633 451.154 420.843 450.874 420.024 450.799C417.171 450.288 413.788 449.954 411.812 452.178C409.964 454.26 410.283 457.649 408.741 459.994C408.252 460.705 407.587 461.344 407.166 462.126C406.642 463.323 406.409 464.636 406.486 465.949C406.405 469.566 406.323 473.197 406.568 476.807C406.765 479.834 407.247 483.01 409.061 485.383C411.968 489.192 417.212 489.739 421.858 489.981L425.628 490.187C426.664 490.314 427.715 490.212 428.711 489.888C429.329 489.591 429.883 489.167 430.341 488.641C430.798 488.114 431.15 487.497 431.374 486.826C433.337 481.724 430.233 476.231 428.318 471.115C426.11 465.224 426.504 458.694 423.468 453.13Z" fill="#535070"/>
<path d="M392.297 77.8938C392.249 77.3766 392.321 76.8548 392.507 76.3732C393.058 75.357 394.498 75.6626 395.584 75.9184C399.952 77.0695 404.557 76.025 409.061 76.295C413.564 76.565 418.631 78.9171 419.535 83.5358C422.802 81.117 425.618 78.092 427.842 74.6109C429.092 72.6568 430.179 70.4185 430.009 68.0736C429.764 64.6912 427.054 62.1616 424.575 60.0156L417.103 53.6204C416.119 52.6759 414.983 51.9206 413.748 51.3892C412.022 50.771 410.134 51.0694 408.314 51.0694C402.88 51.0694 397.052 48.4758 392.208 51.0694C390.171 52.1566 388.656 54.0254 387.189 55.8445L380.512 64.1157C380.006 64.6429 379.637 65.2957 379.438 66.0129C379.248 67.0219 379.744 68.0167 379.921 69.0329C380.233 70.8804 379.472 72.8558 380.057 74.6323C381.028 77.5741 384.451 77.9933 386.543 79.6845C387.318 80.3098 388.541 82.4486 389.471 82.4202C391.108 82.3847 392.249 79.2581 392.297 77.8938Z" fill="#3F3D56"/>
<path d="M403.627 102.288C415.444 102.288 425.023 92.2667 425.023 79.9048C425.023 67.5428 415.444 57.5215 403.627 57.5215C391.81 57.5215 382.23 67.5428 382.23 79.9048C382.23 92.2667 391.81 102.288 403.627 102.288Z" fill="#FFC0C6"/>
<path d="M408.64 128.885C407.915 126.716 406.55 124.843 404.742 123.538C402.934 122.233 400.776 121.562 398.58 121.623C397.95 121.749 397.298 121.662 396.719 121.374C396.39 121.112 396.127 120.771 395.951 120.379C394.654 117.93 393.609 115.343 392.833 112.663C392.494 111.476 392.025 110.076 390.877 109.771C389.953 109.522 389.009 110.147 388.391 110.907C387.843 111.723 387.249 112.504 386.611 113.245C383.894 115.761 379.14 113.466 376.294 115.775C375.825 116.152 375.438 116.635 374.935 116.983C374.446 117.295 373.918 117.534 373.366 117.693C367.841 119.574 362.425 121.787 357.145 124.323C359.047 136.289 360.99 148.483 365.446 159.675C367.565 165.004 369.963 170.227 371.661 175.719C375.424 187.892 375.587 200.917 375.635 213.714C375.635 222.469 375.635 231.408 372.918 239.693C372.306 241.569 371.559 243.431 371.389 245.378C371.22 247.325 371.777 249.527 373.305 250.693C374.19 251.303 375.204 251.677 376.26 251.78C380.953 252.491 385.681 251.197 390.3 250.075C402.683 247.076 415.317 245.356 427.917 243.679L449.042 240.837C450.557 240.726 452.04 240.324 453.416 239.65C457.281 237.44 457.648 231.358 455.243 227.492C454.096 225.638 452.472 224.117 451.501 222.156C450.529 220.195 450.455 217.438 452.119 216.08C455.515 213.309 454.496 208.172 454.659 203.681C455.112 191.118 455.051 178.564 454.476 166.02C454.303 163.419 454.262 160.81 454.354 158.204C454.591 153.784 455.637 149.456 456.683 145.157L463.102 118.724C461.425 115.953 458.212 114.19 455.176 113.394C452.139 112.599 448.967 112.364 445.972 111.391C439.858 109.401 434.37 104.356 427.965 104.825C427.479 104.834 427.001 104.955 426.565 105.18C425.125 106.04 425.349 108.214 425.261 109.948C425.057 113.792 422.354 116.997 419.379 119.25C416.404 121.502 412.994 123.137 410.256 125.702C409.781 126.077 409.39 126.556 409.111 127.106C408.831 127.656 408.671 128.263 408.64 128.885Z" fill="#3F3D56"/>
<path d="M323.862 153.961C322.445 154.925 320.938 155.737 319.365 156.385C317.871 157.003 316.275 157.493 315.052 158.573C314.447 159.123 313.939 159.779 313.551 160.513C312.827 161.857 312.461 163.379 312.491 164.921C312.521 166.463 312.946 167.968 313.722 169.28C314.498 170.591 315.596 171.661 316.901 172.378C318.207 173.094 319.673 173.431 321.145 173.353C323.108 173.247 324.962 172.415 326.762 171.598L341.855 164.727C344.409 163.568 347.167 162.218 348.376 159.589C348.515 159.343 348.568 159.054 348.526 158.772C348.409 158.462 348.186 158.209 347.901 158.061C344.5 155.747 341.525 152.81 339.118 149.392C338.5 148.511 337.76 146.436 336.863 145.903C333.67 144.049 326.423 152.228 323.862 153.961Z" fill="#FFC0C6"/>
<path d="M485.199 148.383L490.762 155.034C491.957 156.456 493.153 157.877 494.239 159.412C496.914 163.265 499.059 167.491 500.611 171.968C501.82 175.286 502.825 178.825 502.404 182.349C502.122 184.156 501.655 185.926 501.012 187.629C499.992 190.902 498.727 194.086 497.228 197.151C495.976 199.476 494.562 201.701 492.996 203.809C488.688 209.782 483.973 215.422 478.888 220.685C476.986 222.653 476.171 225.844 475.363 228.501C473.835 233.411 470.201 237.242 466.689 240.865C465.559 242.115 464.31 243.239 462.96 244.219C460.938 245.584 458.573 246.287 456.167 246.237C455.118 246.244 454.078 246.019 453.117 245.577C450.713 244.383 449.49 241.477 449.239 238.705C449.017 236.187 449.419 233.652 450.407 231.344C453.6 223.947 461.798 220.742 467.592 215.341C470.989 212.179 473.59 208.2 476.158 204.271C477.897 201.814 479.349 199.15 480.485 196.333C481.775 192.717 481.273 188.439 482.407 184.772C482.882 183.216 483.765 181.816 484.248 180.274C484.73 178.732 484.893 176.906 483.99 175.577C483.313 174.728 482.448 174.064 481.47 173.645C477.768 171.683 473.624 169.154 472.918 164.869C472.635 162.496 473.228 160.1 474.575 158.168C475.915 156.261 477.484 154.542 479.242 153.052C480.851 151.531 483.575 149.847 485.199 148.383Z" fill="#FFC0C6"/>
<path d="M320.289 163.242C319.311 161.167 318.081 159.049 316.098 158.019C315.133 157.583 314.093 157.359 313.041 157.359C311.99 157.359 310.95 157.583 309.985 158.019C308.063 158.888 306.262 160.026 304.632 161.401L299.837 165.103C298.75 165.85 297.788 166.779 296.991 167.853C296.23 169.157 295.727 170.607 295.51 172.117C294.83 175.577 294.28 179.137 294.756 182.641C295.517 188.325 298.777 193.242 302.363 197.563C304.605 200.249 307.376 202.963 310.786 203.084C312.26 203.134 313.897 202.523 314.508 201.123C314.722 200.567 314.834 199.974 314.841 199.375C315.208 193.065 313.048 186.904 310.535 181.155C309.856 179.592 309.122 177.972 309.176 176.26C309.156 175.969 309.227 175.679 309.38 175.435C309.596 175.199 309.885 175.05 310.195 175.016C313.639 174.305 319.576 177.105 321.987 173.105C323.549 170.461 321.403 165.594 320.289 163.242Z" fill="#FFC0C6"/>
<path d="M391.169 70.852C391.127 70.3343 391.201 69.8134 391.387 69.3314C391.937 68.3081 393.377 68.6208 394.464 68.8766C398.831 70.0277 403.437 68.9832 407.94 69.2532C412.443 69.5232 417.504 71.8753 418.414 76.494C421.678 74.0713 424.493 71.047 426.721 67.5691C427.971 65.6079 429.058 63.3696 428.888 61.0247C428.644 57.6423 425.927 55.1127 423.454 52.9738L415.982 46.5786C415.001 45.6342 413.867 44.8788 412.634 44.3474C410.902 43.7292 409.02 44.0276 407.2 44.0276C401.766 44.0276 395.938 41.434 391.094 44.0276C389.057 45.1148 387.542 46.9836 386.075 48.8027L379.391 57.0739C378.888 57.6023 378.522 58.2549 378.324 58.9711C378.134 59.9801 378.63 60.9749 378.807 61.9911C379.119 63.8386 378.358 65.814 378.943 67.5833C379.914 70.5322 383.337 70.9515 385.43 72.6427C386.204 73.268 387.427 75.4068 388.357 75.3784C389.967 75.3429 391.108 72.2163 391.169 70.852Z" fill="#3F3D56"/>
<path d="M345.727 132.189C344.865 132.775 344.106 133.513 343.486 134.371C342.705 135.614 342.542 137.213 341.869 138.492C340.429 141.292 337.053 142.294 334.954 144.589C334.614 144.903 334.376 145.32 334.275 145.783C334.262 146.408 334.462 147.017 334.839 147.502L344.987 164.187C348.383 164.499 351.603 162.282 354.985 162.581C356.242 162.687 357.539 163.142 358.748 162.751C359.613 162.349 360.423 161.83 361.16 161.209C363.198 159.874 365.86 159.717 367.552 157.962C369.243 156.207 369.386 153.628 369.365 151.233C369.396 149.155 369.193 147.08 368.761 145.051C367.266 138.656 362.586 133.724 359.652 128.054C358.219 125.29 357.444 123.677 354.422 125.574C351.399 127.471 348.587 130.001 345.727 132.189Z" fill="#3F3D56"/>
<path d="M468.951 123.755C470.858 125.05 472.578 126.625 474.059 128.43C475.601 130.512 476.477 133.07 477.964 135.202C479.452 137.334 481.361 138.869 482.991 140.773C485.47 143.658 487.148 147.168 488.792 150.657C484.768 156.134 480.383 161.311 475.669 166.148C475.143 166.795 474.449 167.269 473.672 167.512C473.144 167.572 472.611 167.493 472.121 167.283C471.63 167.074 471.196 166.74 470.859 166.311C470.126 165.516 469.61 164.521 468.91 163.689C467.262 161.911 465.065 160.801 462.708 160.556C460.372 160.318 458.02 160.282 455.678 160.449C455.164 160.513 454.643 160.422 454.177 160.186C453.83 159.937 453.55 159.6 453.362 159.206C450.645 154.317 451.494 148.177 452.465 142.592L454.686 129.802C455.011 127.36 455.634 124.972 456.541 122.696C457.383 120.813 459.258 117.615 461.581 118.184C463.904 118.752 466.988 122.277 468.951 123.755Z" fill="#3F3D56"/>
<path d="M275.248 217.516L228.454 227.528L227.387 227.421L186.265 223.08V168.564L236.605 159.66L273.122 164.116L273.135 164.357V164.471L275.248 217.516Z" fill="#0C9200"/>
<path opacity="0.1" d="M275.248 217.516L228.454 227.528L227.387 227.421V171.534L273.135 164.357L275.248 217.516Z" fill="black"/>
<path opacity="0.05" d="M273.135 164.471L273.122 164.485L227.387 171.534L186.265 168.564L236.605 159.66L273.122 164.116L273.135 164.357V164.471Z" fill="black"/>
<path d="M299.701 163.512L252.907 173.531L251.84 173.417L210.718 169.076V114.56L261.058 105.656L297.575 110.112L297.588 110.353V110.467L299.701 163.512Z" fill="#3F3D56"/>
<path opacity="0.1" d="M299.701 163.512L252.907 173.531L251.841 173.417V117.53L297.588 110.353L299.701 163.512Z" fill="black"/>
<path opacity="0.05" d="M297.588 110.467L297.575 110.481L251.84 117.53L210.718 114.56L261.058 105.656L297.575 110.112L297.588 110.353V110.467Z" fill="black"/>
</g>
<defs>
<clipPath id="clip0">
<rect width="645" height="500" fill="white"/>
</clipPath>
</defs>
</svg>
