<svg width="700" height="500" viewBox="0 0 700 500" fill="none" xmlns="http://www.w3.org/2000/svg">
<g clip-path="url(#clip0)">
<path d="M631.707 88.3789H615.096C615.86 90.3808 616.151 92.5527 615.945 94.7033C615.738 96.854 615.04 98.9174 613.912 100.712C612.784 102.506 611.26 103.976 609.475 104.993C607.69 106.01 605.698 106.542 603.676 106.542H530.771C528.749 106.542 526.757 106.01 524.972 104.993C523.187 103.976 521.663 102.506 520.535 100.712C519.407 98.9174 518.709 96.854 518.502 94.7033C518.296 92.5527 518.588 90.3807 519.352 88.3789H503.836C496.951 88.3789 490.348 91.3025 485.479 96.5066C480.61 101.711 477.875 108.769 477.875 116.128V467.83C477.875 475.189 480.61 482.248 485.479 487.452C490.348 492.656 496.951 495.579 503.836 495.579H631.707C638.592 495.579 645.196 492.656 650.065 487.452C654.933 482.248 657.669 475.189 657.669 467.83V116.128C657.669 108.769 654.933 101.711 650.065 96.5066C645.196 91.3025 638.592 88.3789 631.707 88.3789Z" fill="#F0F0F0"/>
<path d="M631.855 223.064C628.61 213.102 623.372 204.015 616.504 196.439C609.637 188.862 601.306 182.978 592.092 179.197C582.879 175.416 573.005 173.828 563.158 174.545C553.311 175.262 543.73 178.266 535.081 183.348C526.432 188.429 518.925 195.467 513.082 203.968C507.239 212.47 503.201 222.232 501.251 232.573C499.3 242.914 499.483 253.585 501.787 263.843C504.092 274.1 508.461 283.697 514.592 291.964C515.201 292.784 515.835 293.604 516.48 294.399C516.529 294.451 516.566 294.503 516.614 294.555C518.202 296.51 519.89 298.37 521.669 300.127C522.132 300.583 522.62 301.051 523.107 301.494C524.032 302.379 524.982 303.226 525.969 304.033C526.359 304.358 526.736 304.684 527.138 304.996C528.697 306.259 530.317 307.431 531.986 308.551L532.059 308.59C532.534 308.902 533.022 309.215 533.509 309.514C534.386 310.074 535.287 310.608 536.188 311.116L536.761 311.428C538.077 312.157 539.417 312.847 540.793 313.485C541.073 313.615 541.377 313.746 541.658 313.876C541.682 313.889 541.694 313.889 541.718 313.902C542.364 314.188 543.01 314.462 543.667 314.722C545.828 315.604 548.032 316.36 550.269 316.987C555.979 318.614 561.863 319.437 567.773 319.435C569.929 319.435 572.06 319.331 574.168 319.11C578.983 318.635 583.736 317.609 588.346 316.05C588.358 316.05 588.37 316.037 588.382 316.037C591.295 315.045 594.139 313.84 596.897 312.431C596.909 312.418 596.933 312.418 596.946 312.405C597.566 312.092 598.164 311.754 598.773 311.428C598.87 311.376 598.967 311.324 599.065 311.272C599.552 310.998 600.039 310.725 600.527 310.439C601.745 309.722 602.938 308.967 604.119 308.16C604.448 307.952 604.765 307.731 605.094 307.496C605.557 307.171 606.02 306.832 606.471 306.481C607.067 306.038 607.664 305.582 608.249 305.114C608.431 304.97 608.627 304.827 608.809 304.671C620.221 295.413 628.597 282.53 632.737 267.87C636.877 253.21 636.568 237.525 631.855 223.064L631.855 223.064Z" fill="white"/>
<path d="M602.936 301.66C597.165 298.409 591.142 295.7 584.933 293.562L584.142 284.2L552.034 280.502L547.954 292.468L536.431 297.09C536.019 297.257 535.627 297.476 535.262 297.741H535.25C534.607 298.206 534.059 298.806 533.64 299.504C533.221 300.202 532.94 300.985 532.813 301.803C532.69 302.617 532.72 303.449 532.899 304.251L533.508 306.92C534.385 307.48 535.286 308.014 536.187 308.522L536.76 308.834C538.076 309.564 539.416 310.254 540.792 310.892C541.072 311.022 541.377 311.152 541.657 311.282C541.681 311.295 541.693 311.295 541.717 311.308C542.363 311.595 543.009 311.868 543.666 312.128C545.827 313.011 548.031 313.767 550.268 314.394C555.978 316.021 561.862 316.844 567.771 316.842C569.927 316.842 572.059 316.738 574.166 316.516C578.981 316.041 583.734 315.015 588.344 313.457C588.356 313.457 588.368 313.444 588.38 313.444C591.293 312.452 594.137 311.247 596.895 309.837C596.907 309.824 596.931 309.824 596.944 309.811C597.564 309.498 598.161 309.16 598.771 308.834C598.868 308.782 598.965 308.73 599.063 308.678C599.55 308.405 600.037 308.131 600.524 307.845C601.742 307.129 602.936 306.374 604.117 305.566C604.446 305.358 604.763 305.137 605.092 304.902C605.555 304.577 606.018 304.238 606.468 303.887C605.335 303.105 604.154 302.363 602.936 301.66Z" fill="#E4E4E4"/>
<path d="M542.678 307.429L540.669 297.729H535.419C535.366 297.73 535.313 297.735 535.261 297.743H535.248C533.361 297.913 531.544 298.584 529.962 299.695C528.889 300.428 527.934 301.343 527.136 302.404C528.695 303.666 530.315 304.838 531.984 305.958L532.057 305.997C532.532 306.309 533.02 306.622 533.507 306.921C534.383 307.481 535.285 308.015 536.186 308.523L536.759 308.835C538.074 309.564 539.414 310.254 540.791 310.892C541.071 311.023 541.375 311.153 541.655 311.283C541.68 311.296 541.692 311.296 541.716 311.309C542.362 311.595 543.007 311.869 543.665 312.129L542.678 307.429Z" fill="#E4E4E4"/>
<path d="M566.826 274.578C579.598 274.578 589.951 263.511 589.951 249.861C589.951 236.21 579.598 225.143 566.826 225.143C554.055 225.143 543.702 236.21 543.702 249.861C543.702 263.511 554.055 274.578 566.826 274.578Z" fill="#A0616A"/>
<path d="M551.3 237.827C553.694 240.855 557.745 241.709 561.482 242.059C569.071 242.771 580.107 241.617 587.524 239.787C588.053 245.27 586.61 251.183 589.632 255.693C591.048 250.232 591.872 244.615 592.087 238.953C592.312 236.524 592.015 234.071 591.219 231.783C590.793 230.637 590.075 229.641 589.146 228.909C588.217 228.176 587.114 227.738 585.963 227.642C587.686 226.245 589.704 225.323 591.839 224.957L584.497 221.013L586.382 218.944L573.089 218.075L576.939 215.461C571.145 214.61 565.282 214.412 559.449 214.871C556.74 215.084 553.908 215.491 551.713 217.169C549.518 218.846 548.25 222.18 549.612 224.643C547.907 224.943 546.3 225.703 544.946 226.851C543.592 227.999 542.535 229.498 541.874 231.206C541.039 233.92 540.837 236.811 541.287 239.627C541.788 244.146 542.77 248.588 544.215 252.868L551.3 237.827Z" fill="#2F2E41"/>
<path d="M631.855 223.064C628.61 213.102 623.372 204.015 616.504 196.439C609.637 188.862 601.306 182.978 592.092 179.197C582.879 175.416 573.005 173.828 563.158 174.545C553.311 175.262 543.73 178.266 535.081 183.348C526.432 188.429 518.925 195.467 513.082 203.968C507.239 212.47 503.201 222.232 501.251 232.573C499.3 242.914 499.483 253.585 501.787 263.843C504.092 274.1 508.461 283.697 514.592 291.964C515.201 292.784 515.835 293.604 516.48 294.399C516.529 294.451 516.566 294.503 516.614 294.555C518.202 296.51 519.89 298.37 521.669 300.127C522.132 300.583 522.62 301.051 523.107 301.494C524.032 302.379 524.982 303.226 525.969 304.033C526.359 304.358 526.736 304.684 527.138 304.996C528.697 306.259 530.317 307.431 531.986 308.551L532.059 308.59C532.534 308.902 533.022 309.215 533.509 309.514C534.386 310.074 535.287 310.608 536.188 311.116L536.761 311.428C538.077 312.157 539.417 312.847 540.793 313.485C541.073 313.615 541.377 313.746 541.658 313.876C541.682 313.889 541.694 313.889 541.718 313.902C542.364 314.188 543.01 314.462 543.667 314.722C545.828 315.604 548.032 316.36 550.269 316.987C555.979 318.614 561.863 319.437 567.773 319.435C569.929 319.435 572.06 319.331 574.168 319.11C578.983 318.635 583.736 317.609 588.346 316.05C588.358 316.05 588.37 316.037 588.382 316.037C591.295 315.045 594.139 313.84 596.897 312.431C596.909 312.418 596.933 312.418 596.946 312.405C597.566 312.092 598.164 311.754 598.773 311.428C598.87 311.376 598.967 311.324 599.065 311.272C599.552 310.998 600.039 310.725 600.527 310.439C601.745 309.722 602.938 308.967 604.119 308.16C604.448 307.952 604.765 307.731 605.094 307.496C605.557 307.171 606.02 306.832 606.471 306.481C607.067 306.038 607.664 305.582 608.249 305.114C608.431 304.97 608.627 304.827 608.809 304.671C620.221 295.413 628.597 282.53 632.737 267.87C636.877 253.21 636.568 237.525 631.855 223.064L631.855 223.064ZM606.568 301.507C606.166 301.846 605.752 302.171 605.338 302.471C604.936 302.796 604.534 303.109 604.119 303.395C603.766 303.668 603.413 303.929 603.048 304.176L602.938 304.254C602.67 304.45 602.402 304.632 602.134 304.814C601.123 305.491 600.1 306.142 599.065 306.767C598.955 306.832 598.845 306.897 598.736 306.962C598.273 307.236 597.81 307.496 597.348 307.757C597.286 307.796 597.213 307.822 597.153 307.861L597.079 307.9C596.495 308.225 595.898 308.538 595.301 308.837C592.998 310.023 590.626 311.049 588.2 311.91C587.883 312.027 587.566 312.144 587.25 312.248C582.886 313.732 578.386 314.709 573.827 315.165C571.829 315.36 569.807 315.464 567.773 315.464C562.184 315.476 556.617 314.697 551.22 313.147C548.449 312.374 545.734 311.39 543.095 310.204C542.961 310.139 542.815 310.087 542.681 310.022C542.535 309.957 542.401 309.905 542.267 309.84C542.12 309.775 541.987 309.709 541.84 309.631C540.695 309.097 539.562 308.512 538.454 307.9L537.919 307.6C536.566 306.845 535.239 306.038 533.947 305.179C533.57 304.931 533.18 304.671 532.814 304.397C532.717 304.332 532.632 304.267 532.534 304.202C531.669 303.59 530.805 302.952 529.964 302.288C529.392 301.833 528.819 301.377 528.259 300.908C527.321 300.153 526.42 299.346 525.543 298.513C525.08 298.096 524.629 297.64 524.191 297.211C522.464 295.506 520.829 293.698 519.294 291.795C518.783 291.17 518.283 290.545 517.808 289.894C517.7 289.765 517.598 289.63 517.504 289.49C509.589 278.816 504.829 265.863 503.83 252.285C502.831 238.707 505.637 225.119 511.893 213.253C518.148 201.387 527.568 191.781 538.951 185.661C550.334 179.54 563.165 177.183 575.807 178.888C588.449 180.594 600.329 186.286 609.933 195.238C619.536 204.19 626.427 215.996 629.727 229.152C633.028 242.307 632.587 256.215 628.463 269.101C624.338 281.988 616.716 293.27 606.568 301.507H606.568Z" fill="#E4E4E4"/>
<path d="M614.723 376.302H521.019C518.038 376.299 515.181 375.032 513.074 372.778C510.968 370.524 509.784 367.469 509.784 364.283C509.784 361.098 510.968 358.042 513.074 355.789C515.181 353.535 518.038 352.267 521.019 352.264H614.723C617.705 352.264 620.565 353.531 622.674 355.785C624.783 358.039 625.968 361.096 625.968 364.283C625.968 367.471 624.783 370.528 622.674 372.782C620.565 375.036 617.705 376.302 614.723 376.302Z" fill="white"/>
<path d="M614.723 413.366H521.019C518.038 413.363 515.181 412.095 513.074 409.842C510.968 407.588 509.784 404.533 509.784 401.347C509.784 398.161 510.968 395.106 513.074 392.852C515.181 390.599 518.038 389.331 521.019 389.328H614.723C617.705 389.328 620.565 390.594 622.674 392.848C624.783 395.102 625.968 398.159 625.968 401.347C625.968 404.535 624.783 407.592 622.674 409.846C620.565 412.1 617.705 413.366 614.723 413.366Z" fill="white"/>
<path d="M215.164 90.4389H198.552C199.316 92.4407 199.608 94.6126 199.401 96.7633C199.195 98.9139 198.497 100.977 197.369 102.772C196.241 104.566 194.717 106.036 192.932 107.053C191.147 108.07 189.155 108.602 187.132 108.602H114.229C112.206 108.602 110.215 108.07 108.43 107.053C106.644 106.036 105.121 104.566 103.992 102.772C102.864 100.977 102.166 98.9139 101.96 96.7633C101.753 94.6126 102.045 92.4407 102.809 90.4388H87.2941C80.4086 90.4388 73.8052 93.3624 68.9365 98.5665C64.0677 103.771 61.3325 110.829 61.3325 118.188V469.89C61.3325 477.249 64.0677 484.308 68.9365 489.512C73.8052 494.716 80.4086 497.639 87.2941 497.639H215.164C222.049 497.639 228.652 494.716 233.521 489.512C238.39 484.308 241.125 477.249 241.125 469.89V118.188C241.125 110.829 238.39 103.771 233.521 98.5665C228.652 93.3625 222.049 90.4389 215.164 90.4389Z" fill="#F0F0F0"/>
<path d="M215.311 225.124C212.066 215.161 206.827 206.075 199.96 198.499C193.092 190.922 184.761 185.038 175.548 181.257C166.334 177.476 156.46 175.888 146.613 176.605C136.767 177.322 127.185 180.326 118.536 185.408C109.888 190.489 102.38 197.526 96.5371 206.028C90.6941 214.53 86.6565 224.292 84.7059 234.633C82.7552 244.973 82.9383 255.645 85.2426 265.902C87.5468 276.16 91.9166 285.757 98.0473 294.024C98.6564 294.844 99.2898 295.664 99.9357 296.458C99.9845 296.51 100.021 296.563 100.07 296.615C101.657 298.57 103.345 300.43 105.124 302.187C105.588 302.643 106.075 303.111 106.562 303.554C107.487 304.439 108.438 305.286 109.424 306.093C109.814 306.418 110.192 306.744 110.594 307.056C112.153 308.319 113.773 309.491 115.442 310.611L115.515 310.65C115.989 310.962 116.477 311.275 116.964 311.574C117.841 312.134 118.742 312.668 119.644 313.175L120.216 313.488C121.532 314.217 122.872 314.907 124.248 315.545C124.528 315.675 124.833 315.805 125.113 315.936C125.137 315.949 125.149 315.949 125.174 315.962C125.82 316.248 126.465 316.521 127.123 316.782C129.283 317.664 131.487 318.42 133.724 319.047C139.435 320.674 145.319 321.497 151.228 321.495C153.384 321.495 155.516 321.391 157.623 321.169C162.438 320.694 167.191 319.669 171.802 318.11C171.813 318.11 171.826 318.097 171.838 318.097C174.75 317.105 177.595 315.9 180.352 314.49C180.364 314.477 180.389 314.477 180.401 314.464C181.022 314.152 181.619 313.813 182.228 313.488C182.326 313.436 182.423 313.384 182.52 313.332C183.007 313.058 183.495 312.785 183.982 312.499C185.2 311.782 186.394 311.027 187.575 310.22C187.904 310.012 188.221 309.79 188.55 309.556C189.013 309.231 189.475 308.892 189.926 308.541C190.523 308.098 191.12 307.642 191.704 307.173C191.887 307.03 192.082 306.887 192.265 306.731C203.676 297.473 212.053 284.59 216.193 269.93C220.333 255.27 220.024 239.585 215.31 225.124L215.311 225.124Z" fill="white"/>
<path d="M198.18 378.362H104.475C101.493 378.362 98.6329 377.096 96.5242 374.842C94.4154 372.588 93.2307 369.531 93.2307 366.343C93.2307 363.156 94.4154 360.099 96.5242 357.845C98.6329 355.591 101.493 354.324 104.475 354.324H198.18C201.16 354.327 204.018 355.595 206.124 357.849C208.231 360.102 209.414 363.158 209.414 366.343C209.414 369.529 208.231 372.584 206.124 374.838C204.018 377.092 201.16 378.359 198.18 378.362Z" fill="white"/>
<path d="M198.176 415.415H104.471C102.994 415.417 101.531 415.107 100.165 414.504C98.7997 413.9 97.5588 413.015 96.5136 411.898C95.4683 410.782 94.6391 409.456 94.0734 407.997C93.5076 406.538 93.2164 404.974 93.2164 403.394C93.2164 401.814 93.5076 400.25 94.0734 398.791C94.6391 397.332 95.4683 396.006 96.5136 394.89C97.5588 393.773 98.7997 392.888 100.165 392.285C101.531 391.681 102.994 391.371 104.471 391.373H198.176C201.158 391.373 204.018 392.639 206.127 394.894C208.236 397.148 209.421 400.206 209.421 403.394C209.421 406.582 208.236 409.64 206.127 411.894C204.018 414.149 201.158 415.415 198.176 415.415Z" fill="white"/>
<path d="M127.316 265.941L131.258 280.535L181.622 279.585L181.181 252.845C180.831 231.678 166.838 213.423 147.039 213.797C127.239 214.17 114.65 232.064 114.999 253.23L117.875 280.787L126.087 280.633L127.316 265.941Z" fill="#2F2E41"/>
<path d="M149.293 276.137C161.773 276.137 171.89 265.323 171.89 251.983C171.89 238.643 161.773 227.829 149.293 227.829C136.813 227.829 126.695 238.643 126.695 251.983C126.695 265.323 136.813 276.137 149.293 276.137Z" fill="#FFB6B6"/>
<path d="M194.268 289.651L193.756 299.811C182.911 311.869 168.117 318.967 152.48 319.615C136.843 320.262 121.579 314.409 109.894 303.283C109.372 302.792 108.86 302.278 108.358 301.754C111.492 298.426 120.141 290.209 129.739 289.45L173.023 286.536C173.023 286.536 189.422 284.481 194.268 289.651Z" fill="#E4E4E4"/>
<path d="M174.029 235.022C173.999 233.173 173.457 231.374 172.472 229.853C172.368 229.697 172.264 229.552 172.159 229.407C171.322 228.265 170.249 227.345 169.024 226.719C167.799 226.094 166.455 225.779 165.098 225.801L148.856 226.113L132.625 226.415C130.3 226.464 128.088 227.497 126.473 229.286C124.858 231.075 123.971 233.474 124.008 235.96L127.873 244.278L130.097 249.056L130.463 248.833C144.511 240.392 150.256 240.281 168.848 248.129L169.224 248.286L170.697 244.255L174.039 235.112L174.029 235.022Z" fill="#2F2E41"/>
<path d="M199.397 296.492C198.092 298.278 196.913 298.246 195.44 299.876C191.722 304.018 185.789 307.565 181.151 310.524L180.138 291.12L194.27 289.658C196.622 291.287 198.42 293.684 199.397 296.492Z" fill="#E4E4E4"/>
<path d="M215.311 225.124C212.066 215.161 206.827 206.075 199.96 198.499C193.092 190.922 184.761 185.038 175.548 181.257C166.334 177.476 156.46 175.888 146.613 176.605C136.767 177.322 127.185 180.326 118.536 185.408C109.888 190.489 102.38 197.526 96.5371 206.028C90.6941 214.53 86.6565 224.292 84.7059 234.633C82.7552 244.973 82.9383 255.645 85.2426 265.902C87.5468 276.16 91.9166 285.757 98.0473 294.024C98.6564 294.844 99.2898 295.664 99.9357 296.458C99.9845 296.51 100.021 296.563 100.07 296.615C101.657 298.57 103.345 300.43 105.124 302.187C105.588 302.643 106.075 303.111 106.562 303.554C107.487 304.439 108.438 305.286 109.424 306.093C109.814 306.418 110.192 306.744 110.594 307.056C112.153 308.319 113.773 309.491 115.442 310.611L115.515 310.65C115.989 310.962 116.477 311.275 116.964 311.574C117.841 312.134 118.742 312.668 119.644 313.175L120.216 313.488C121.532 314.217 122.872 314.907 124.248 315.545C124.528 315.675 124.833 315.805 125.113 315.936C125.137 315.949 125.149 315.949 125.174 315.962C125.82 316.248 126.465 316.521 127.123 316.782C129.283 317.664 131.487 318.42 133.724 319.047C139.435 320.674 145.319 321.497 151.228 321.495C153.384 321.495 155.516 321.391 157.623 321.169C162.438 320.694 167.191 319.669 171.802 318.11C171.813 318.11 171.826 318.097 171.838 318.097C174.75 317.105 177.595 315.9 180.352 314.49C180.364 314.477 180.389 314.477 180.401 314.464C181.022 314.152 181.619 313.813 182.228 313.488C182.326 313.436 182.423 313.384 182.52 313.332C183.007 313.058 183.495 312.785 183.982 312.499C185.2 311.782 186.394 311.027 187.575 310.22C187.904 310.012 188.221 309.79 188.55 309.556C189.013 309.231 189.475 308.892 189.926 308.541C190.523 308.098 191.12 307.642 191.704 307.173C191.887 307.03 192.082 306.887 192.265 306.731C203.676 297.473 212.053 284.59 216.193 269.93C220.333 255.27 220.024 239.585 215.31 225.124L215.311 225.124ZM190.024 303.567C189.622 303.906 189.208 304.231 188.793 304.531C188.391 304.856 187.99 305.168 187.575 305.455C187.222 305.728 186.869 305.989 186.503 306.236L186.394 306.314C186.126 306.509 185.858 306.692 185.59 306.874C184.579 307.551 183.556 308.202 182.52 308.827C182.411 308.892 182.301 308.957 182.191 309.022C181.729 309.296 181.266 309.556 180.803 309.816C180.742 309.856 180.669 309.882 180.608 309.921L180.535 309.96C179.95 310.285 179.353 310.598 178.757 310.897C176.453 312.083 174.081 313.109 171.655 313.97C171.338 314.087 171.022 314.204 170.705 314.308C166.342 315.792 161.842 316.769 157.282 317.225C155.285 317.42 153.262 317.524 151.228 317.524C145.639 317.536 140.073 316.757 134.675 315.206C131.905 314.434 129.19 313.45 126.551 312.264C126.416 312.199 126.27 312.147 126.136 312.082C125.99 312.017 125.856 311.965 125.722 311.899C125.576 311.834 125.442 311.769 125.296 311.691C124.151 311.157 123.018 310.571 121.91 309.96L121.374 309.66C120.021 308.905 118.694 308.098 117.403 307.238C117.025 306.991 116.635 306.731 116.27 306.457C116.173 306.392 116.087 306.327 115.989 306.262C115.125 305.65 114.26 305.012 113.42 304.348C112.847 303.892 112.275 303.437 111.714 302.968C110.776 302.213 109.875 301.406 108.998 300.572C108.535 300.156 108.085 299.7 107.646 299.271C105.919 297.566 104.284 295.758 102.75 293.854C102.238 293.229 101.738 292.605 101.263 291.954C101.155 291.825 101.054 291.69 100.959 291.55C93.0445 280.875 88.2842 267.923 87.2849 254.345C86.2856 240.767 89.0925 227.179 95.3477 215.313C101.603 203.447 111.023 193.841 122.406 187.721C133.79 181.6 146.62 179.243 159.263 180.948C171.905 182.654 183.785 188.346 193.388 197.298C202.992 206.25 209.883 218.056 213.183 231.211C216.483 244.367 216.043 258.275 211.918 271.161C207.794 284.048 200.171 295.329 190.024 303.567Z" fill="#E4E4E4"/>
<path d="M416.185 285.064C417.138 285.269 418.122 285.248 419.066 285.002C420.011 284.757 420.894 284.293 421.653 283.644C422.412 282.994 423.028 282.175 423.458 281.243C423.889 280.311 424.123 279.29 424.144 278.251L474.389 227.703L463.084 218.063L417.164 270.91C415.529 270.987 413.977 271.703 412.803 272.922C411.629 274.14 410.913 275.777 410.793 277.522C410.672 279.267 411.154 280.998 412.148 282.388C413.142 283.778 414.578 284.73 416.185 285.064H416.185Z" fill="#FFB7B7"/>
<path d="M467.274 235.869L457.499 223.624C457.221 223.276 457.017 222.867 456.899 222.427C456.782 221.986 456.755 221.524 456.82 221.071C456.886 220.619 457.041 220.186 457.277 219.804C457.512 219.421 457.822 219.097 458.185 218.854L470.91 210.339C472.585 208.827 474.753 208.088 476.938 208.283C479.123 208.477 481.147 209.59 482.565 211.378C483.983 213.165 484.68 215.48 484.504 217.816C484.327 220.153 483.291 222.318 481.622 223.839L471.788 235.895C471.506 236.24 471.159 236.516 470.768 236.705C470.378 236.893 469.954 236.989 469.525 236.987C469.097 236.984 468.674 236.883 468.285 236.69C467.897 236.497 467.552 236.217 467.274 235.869Z" fill="#3FFF2E"/>
<path d="M440.982 485.295L428.696 485.294L422.851 434.647L440.983 434.648L440.982 485.295Z" fill="#FFB7B7"/>
<path d="M444.118 498.019L404.508 498.018V497.482C404.508 493.112 406.133 488.92 409.024 485.83C411.915 482.739 415.836 481.003 419.925 481.003H419.926L444.118 481.004L444.118 498.019Z" fill="#2F2E41"/>
<path d="M539.184 485.295L526.899 485.294L521.055 434.647L539.186 434.648L539.184 485.295Z" fill="#FFB7B7"/>
<path d="M542.315 498.019L502.704 498.018V497.482C502.704 493.112 504.328 488.92 507.22 485.83C510.111 482.739 514.032 481.003 518.121 481.003H518.122L542.315 481.004L542.315 498.019Z" fill="#2F2E41"/>
<path d="M506.14 262.716L518.523 213.814L502.459 204.163H480.036L471.315 214.136C471.315 214.136 456.744 224.972 460.27 236.978L465.96 264.324L457.258 307.756L413.416 372.744L403.038 436.579L443.891 448.026L488.068 355.049L509.487 457.999L549.334 455.857L535.604 331.03C535.604 331.03 531.689 293.003 511.172 269.26L506.14 262.716Z" fill="#2F2E41"/>
<path d="M531.716 305.989C532.407 305.258 532.939 304.373 533.276 303.398C533.612 302.423 533.744 301.381 533.663 300.346C533.582 299.31 533.289 298.307 532.805 297.405C532.322 296.504 531.659 295.726 530.864 295.128L521.256 225.845L507.466 230.5L521.27 297.226C520.419 298.72 520.109 300.496 520.401 302.218C520.692 303.94 521.564 305.487 522.852 306.567C524.14 307.647 525.753 308.185 527.387 308.078C529.021 307.972 530.561 307.229 531.716 305.989V305.989Z" fill="#FFB7B7"/>
<path d="M523.623 236.706L508.664 238.549C508.238 238.602 507.807 238.556 507.4 238.414C506.992 238.272 506.618 238.038 506.303 237.728C505.988 237.418 505.739 237.039 505.573 236.616C505.407 236.194 505.329 235.739 505.343 235.281L505.827 219.243C505.588 216.914 506.223 214.578 507.592 212.748C508.962 210.918 510.955 209.744 513.134 209.482C515.312 209.221 517.499 209.893 519.215 211.353C520.93 212.812 522.034 214.939 522.284 217.267L526.162 232.715C526.273 233.158 526.293 233.62 526.222 234.072C526.15 234.523 525.988 234.953 525.748 235.332C525.507 235.71 525.192 236.029 524.826 236.266C524.459 236.503 524.049 236.653 523.623 236.706V236.706Z" fill="#3FFF2E"/>
<path d="M466.168 190.256V169.652C466.172 162.332 468.896 155.314 473.739 150.14C478.583 144.966 485.151 142.059 491.999 142.059C498.847 142.059 505.414 144.966 510.258 150.14C515.102 155.314 517.825 162.332 517.829 169.652V190.256C517.828 191.24 517.462 192.182 516.812 192.878C516.161 193.573 515.279 193.964 514.36 193.965H469.638C468.718 193.964 467.836 193.573 467.186 192.878C466.535 192.182 466.169 191.24 466.168 190.256Z" fill="#2F2E41"/>
<path d="M486.694 193.485C497.153 193.485 505.633 184.422 505.633 173.242C505.633 162.063 497.153 153 486.694 153C476.234 153 467.755 162.063 467.755 173.242C467.755 184.422 476.234 193.485 486.694 193.485Z" fill="#FFB7B7"/>
<path d="M460.059 171.3C460.065 165.51 462.22 159.958 466.05 155.864C469.881 151.769 475.075 149.466 480.492 149.46H484.348C489.765 149.466 494.959 151.77 498.79 155.864C502.621 159.958 504.775 165.51 504.782 171.3V171.712H496.634L493.855 163.395L493.299 171.712H489.088L487.686 167.516L487.406 171.712H460.059L460.059 171.3Z" fill="#2F2E41"/>
<path d="M484.829 196.278C484.447 195.724 484.218 195.067 484.17 194.38C484.122 193.694 484.257 193.007 484.558 192.399C488.644 184.093 494.364 168.745 486.771 159.28L486.225 158.6H508.269V193.973L488.244 197.749C488.041 197.788 487.836 197.807 487.63 197.807C487.083 197.807 486.544 197.669 486.057 197.403C485.571 197.137 485.15 196.752 484.829 196.278Z" fill="#2F2E41"/>
<path d="M395.831 497.808H240.477C231.732 497.798 223.348 494.08 217.165 487.47C210.981 480.861 207.503 471.899 207.493 462.552V35.256C207.503 25.9089 210.981 16.9475 217.165 10.338C223.348 3.7285 231.732 0.0106199 240.477 0H261.473L260.663 2.12377C259.824 4.32178 259.504 6.70657 259.73 9.06806C259.957 11.4296 260.723 13.6953 261.962 15.6656C263.2 17.6359 264.873 19.2503 266.833 20.3667C268.794 21.4831 270.98 22.0671 273.201 22.0673H361.774C363.995 22.067 366.182 21.483 368.142 20.3667C370.102 19.2503 371.775 17.6359 373.014 15.6656C374.253 13.6954 375.019 11.4297 375.246 9.06819C375.473 6.70669 375.153 4.32186 374.314 2.12377L373.504 0H395.831C404.576 0.0106007 412.96 3.72847 419.144 10.338C425.327 16.9474 428.806 25.9088 428.815 35.256V462.552C428.806 471.899 425.327 480.861 419.144 487.47C412.96 494.08 404.576 497.798 395.831 497.808Z" fill="white"/>
<path d="M395.831 497.808H240.477C231.732 497.798 223.348 494.08 217.165 487.47C210.981 480.861 207.503 471.899 207.493 462.552V35.256C207.503 25.9089 210.981 16.9475 217.165 10.338C223.348 3.7285 231.732 0.0106199 240.477 0H261.473L260.663 2.12377C259.824 4.32178 259.504 6.70657 259.73 9.06806C259.957 11.4296 260.723 13.6953 261.962 15.6656C263.2 17.6359 264.873 19.2503 266.833 20.3667C268.794 21.4831 270.98 22.0671 273.201 22.0673H361.774C363.995 22.067 366.182 21.483 368.142 20.3667C370.102 19.2503 371.775 17.6359 373.014 15.6656C374.253 13.6954 375.019 11.4297 375.246 9.06819C375.473 6.70669 375.153 4.32186 374.314 2.12377L373.504 0H395.831C404.576 0.0106007 412.96 3.72847 419.144 10.338C425.327 16.9474 428.806 25.9088 428.815 35.256V462.552C428.806 471.899 425.327 480.861 419.144 487.47C412.96 494.08 404.576 497.798 395.831 497.808ZM240.477 3.08328C232.497 3.09302 224.846 6.48578 219.204 12.5172C213.561 18.5487 210.387 26.7263 210.378 35.256V462.552C210.387 471.082 213.561 479.26 219.204 485.291C224.846 491.323 232.497 494.715 240.477 494.725H395.831C403.811 494.715 411.462 491.323 417.105 485.291C422.748 479.26 425.922 471.082 425.931 462.552V35.256C425.922 26.7263 422.748 18.5486 417.105 12.5172C411.462 6.48573 403.811 3.09299 395.831 3.08328H377.654C378.3 5.68344 378.378 8.40737 377.882 11.0449C377.387 13.6825 376.331 16.1631 374.797 18.2955C373.262 20.4279 371.29 22.1549 369.032 23.3435C366.774 24.532 364.291 25.1503 361.774 25.1505H273.201C270.685 25.1496 268.202 24.5308 265.945 23.342C263.687 22.1532 261.715 20.4261 260.181 18.2939C258.647 16.1616 257.592 13.6812 257.096 11.044C256.601 8.40679 256.679 5.68319 257.324 3.08325L240.477 3.08328Z" fill="#3F3D56"/>
<path d="M400.36 151.165C396.418 139.06 390.054 128.02 381.71 118.815C373.367 109.61 363.245 102.461 352.051 97.8664C340.858 93.2721 328.861 91.3432 316.898 92.2142C304.935 93.0851 293.294 96.735 282.786 102.909C272.279 109.083 263.157 117.633 256.059 127.963C248.96 138.293 244.054 150.153 241.684 162.717C239.315 175.281 239.537 188.247 242.337 200.71C245.136 213.173 250.445 224.833 257.894 234.877C258.633 235.874 259.403 236.87 260.187 237.835C260.246 237.898 260.29 237.962 260.35 238.025C262.279 240.401 264.33 242.661 266.492 244.796C267.054 245.349 267.646 245.919 268.237 246.456C269.362 247.532 270.516 248.56 271.715 249.541C274.056 251.513 276.496 253.346 279.026 255.03L279.115 255.078C280.757 256.169 282.429 257.181 284.132 258.146L284.827 258.526C286.425 259.412 288.053 260.25 289.725 261.025C290.066 261.184 290.435 261.342 290.776 261.5C290.805 261.516 290.821 261.516 290.85 261.532C294.229 263.034 297.7 264.286 301.239 265.281C308.176 267.257 315.325 268.257 322.504 268.255C325.123 268.255 327.713 268.128 330.273 267.859C336.123 267.282 341.898 266.036 347.499 264.142C347.514 264.142 347.529 264.126 347.543 264.126C351.082 262.921 354.538 261.457 357.888 259.744C357.902 259.728 357.933 259.728 357.947 259.713C358.701 259.333 359.427 258.922 360.167 258.526C360.285 258.463 360.404 258.4 360.522 258.336C361.114 258.004 361.706 257.672 362.298 257.324C363.778 256.454 365.228 255.536 366.664 254.556C367.063 254.302 367.448 254.034 367.847 253.749C369.15 252.831 370.437 251.851 371.68 250.854C371.903 250.68 372.139 250.506 372.361 250.316C386.225 239.067 396.402 223.415 401.431 205.603C406.461 187.791 406.086 168.735 400.36 151.165H400.36Z" fill="white"/>
<path d="M349.71 216.446C356.534 216.446 362.066 210.533 362.066 203.239C362.066 195.946 356.534 190.033 349.71 190.033C342.886 190.033 337.354 195.946 337.354 203.239C337.354 210.533 342.886 216.446 349.71 216.446Z" fill="#2F2E41"/>
<path d="M353.152 190.401C355.291 190.401 357.392 190.994 359.252 192.122C361.112 193.251 362.666 194.875 363.762 196.838C364.858 198.8 365.459 201.033 365.506 203.318C365.553 205.603 365.044 207.862 364.029 209.874C365.1 208.442 365.88 206.786 366.32 205.014C366.759 203.242 366.848 201.391 366.581 199.58C366.315 197.768 365.698 196.036 364.77 194.494C363.842 192.952 362.624 191.633 361.193 190.621C359.762 189.61 358.15 188.928 356.459 188.619C354.768 188.311 353.035 188.382 351.371 188.828C349.707 189.275 348.148 190.087 346.794 191.212C345.44 192.338 344.32 193.753 343.506 195.367C344.661 193.817 346.128 192.566 347.799 191.706C349.469 190.846 351.299 190.4 353.153 190.401H353.152Z" fill="#2F2E41"/>
<path d="M326.624 203.205C346.669 203.205 362.919 185.835 362.919 164.407C362.919 142.98 346.669 125.61 326.624 125.61C306.578 125.61 290.328 142.98 290.328 164.407C290.328 185.835 306.578 203.205 326.624 203.205Z" fill="#2F2E41"/>
<path d="M298.137 140.338C304.391 132.82 313.133 128.193 322.518 127.434C331.903 126.675 341.197 129.843 348.438 136.269C348.142 135.967 347.846 135.664 347.54 135.371C340.369 128.513 330.944 124.98 321.337 125.547C311.729 126.115 302.726 130.737 296.306 138.398C289.885 146.059 286.574 156.131 287.098 166.401C287.623 176.671 291.941 186.298 299.103 193.166C299.172 193.232 299.241 193.297 299.311 193.363C299.618 193.655 299.935 193.932 300.25 194.212C293.431 187.278 289.399 177.783 289.005 167.731C288.611 157.68 291.886 147.858 298.138 140.338L298.137 140.338Z" fill="#2F2E41"/>
<path d="M326.316 202.881C339.227 202.881 349.692 191.694 349.692 177.894C349.692 164.095 339.227 152.908 326.316 152.908C313.406 152.908 302.94 164.095 302.94 177.894C302.94 191.694 313.406 202.881 326.316 202.881Z" fill="#A0616A"/>
<path d="M368.141 242.996V251.379C366.706 252.36 365.255 253.277 363.775 254.147C363.184 254.495 362.592 254.828 362 255.16C361.882 255.223 361.763 255.286 361.645 255.35C360.905 255.745 360.179 256.156 359.425 256.536C359.41 256.552 359.38 256.552 359.365 256.568C356.016 258.28 352.559 259.744 349.021 260.949C349.006 260.949 348.992 260.965 348.977 260.965C343.376 262.859 337.601 264.105 331.751 264.682C329.191 264.951 326.601 265.078 323.982 265.078C316.803 265.08 309.654 264.08 302.717 262.104C299.178 261.109 295.707 259.857 292.328 258.355C292.298 258.339 292.283 258.339 292.254 258.323C291.913 258.165 291.543 258.007 291.203 257.849C289.531 257.074 287.903 256.235 286.305 255.35L285.61 254.97C283.907 254.005 282.235 252.993 280.593 251.901L280.504 251.854C277.974 250.169 275.534 248.337 273.193 246.365C271.994 245.384 270.84 244.356 269.715 243.28C269.124 242.743 268.532 242.173 267.97 241.62C265.808 239.485 263.757 237.225 261.828 234.849C262.084 233.202 262.46 231.578 262.953 229.993L262.967 229.977C263.056 229.707 263.159 229.443 263.278 229.187C263.359 228.959 263.453 228.738 263.559 228.522C266.208 223.223 271.003 221.91 276.952 221.626C280.311 221.467 284.026 221.641 287.948 221.594C290.019 221.578 292.165 221.499 294.311 221.293C307.851 219.981 305.395 211.439 306.002 206.836C306.609 202.375 310.367 206.235 310.619 206.488L310.633 206.504C318.296 210.337 326.774 211.925 335.199 211.107C336.649 210.917 338.1 210.806 339.55 210.759C343.368 210.711 342.539 211.882 341.223 212.847C340.583 213.296 339.916 213.698 339.225 214.049C339.225 214.049 338.618 218.003 337.996 223.919C337.405 229.582 356.065 231.544 359.721 232.777H359.735C361.822 233.597 363.684 234.962 365.152 236.746C366.62 238.531 367.647 240.679 368.141 242.996Z" fill="#3F3D56"/>
<path d="M306.324 146.652V171.645H311.737L318.626 163.755L317.704 171.645H341.634L340.154 163.755L343.114 171.645H346.929V146.652H306.324Z" fill="#2F2E41"/>
<path d="M302.627 176.254C303.646 176.254 304.472 174.635 304.472 172.638C304.472 170.641 303.646 169.022 302.627 169.022C301.607 169.022 300.781 170.641 300.781 172.638C300.781 174.635 301.607 176.254 302.627 176.254Z" fill="#A0616A"/>
<path d="M350 176.254C351.02 176.254 351.846 174.635 351.846 172.638C351.846 170.641 351.02 169.022 350 169.022C348.981 169.022 348.154 170.641 348.154 172.638C348.154 174.635 348.981 176.254 350 176.254Z" fill="#A0616A"/>
<path d="M400.36 151.165C396.418 139.06 390.054 128.02 381.71 118.815C373.367 109.61 363.245 102.461 352.051 97.8664C340.858 93.2721 328.861 91.3432 316.898 92.2142C304.935 93.0851 293.294 96.735 282.786 102.909C272.279 109.083 263.157 117.633 256.059 127.963C248.96 138.293 244.054 150.153 241.684 162.717C239.315 175.281 239.537 188.247 242.337 200.71C245.136 213.173 250.445 224.833 257.894 234.877C258.633 235.874 259.403 236.87 260.187 237.835C260.246 237.898 260.29 237.962 260.35 238.025C262.279 240.401 264.33 242.661 266.492 244.796C267.054 245.349 267.646 245.919 268.237 246.456C269.362 247.532 270.516 248.56 271.715 249.541C274.056 251.513 276.496 253.346 279.026 255.03L279.115 255.078C280.757 256.169 282.429 257.181 284.132 258.146L284.827 258.526C286.425 259.412 288.053 260.25 289.725 261.025C290.066 261.184 290.435 261.342 290.776 261.5C290.805 261.516 290.821 261.516 290.85 261.532C294.229 263.034 297.7 264.286 301.239 265.281C308.176 267.257 315.325 268.257 322.504 268.255C325.123 268.255 327.713 268.128 330.273 267.859C336.123 267.282 341.898 266.036 347.499 264.142C347.514 264.142 347.529 264.126 347.543 264.126C351.082 262.921 354.538 261.457 357.888 259.744C357.902 259.728 357.933 259.728 357.947 259.713C358.701 259.333 359.427 258.922 360.167 258.526C360.285 258.463 360.404 258.4 360.522 258.336C361.114 258.004 361.706 257.672 362.298 257.324C363.778 256.454 365.228 255.536 366.664 254.556C367.063 254.302 367.448 254.034 367.847 253.749C369.15 252.831 370.437 251.851 371.68 250.854C371.903 250.68 372.139 250.506 372.361 250.316C386.225 239.067 396.402 223.415 401.431 205.603C406.461 187.791 406.086 168.735 400.36 151.165H400.36ZM369.638 246.472C369.149 246.884 368.647 247.279 368.144 247.643C367.655 248.038 367.167 248.418 366.664 248.766C366.235 249.098 365.805 249.415 365.361 249.715C364.991 249.984 364.621 250.237 364.251 250.49C363.023 251.313 361.78 252.104 360.522 252.863C360.389 252.942 360.256 253.021 360.122 253.1C359.56 253.432 358.998 253.749 358.436 254.065C358.361 254.113 358.272 254.144 358.199 254.192L358.11 254.239C357.399 254.635 356.675 255.014 355.949 255.378C353.151 256.819 350.269 258.066 347.321 259.111C346.937 259.254 346.552 259.396 346.167 259.523C340.866 261.325 335.398 262.513 329.859 263.066C327.432 263.303 324.975 263.43 322.504 263.43C315.713 263.445 308.951 262.498 302.393 260.614C299.027 259.675 295.729 258.48 292.522 257.039C292.182 256.897 291.842 256.739 291.516 256.596C291.339 256.517 291.175 256.438 290.998 256.343C289.607 255.695 288.231 254.983 286.884 254.239L286.233 253.875C284.59 252.958 282.977 251.977 281.408 250.933C280.831 250.553 280.254 250.158 279.692 249.747C277.916 248.497 276.184 247.152 274.497 245.745C273.358 244.827 272.263 243.846 271.197 242.834C270.635 242.328 270.087 241.774 269.555 241.252C267.456 239.181 265.47 236.984 263.606 234.672C262.984 233.912 262.377 233.153 261.8 232.362C261.669 232.206 261.545 232.042 261.43 231.872C251.815 218.902 246.031 203.165 244.817 186.668C243.603 170.171 247.013 153.661 254.613 139.244C262.213 124.827 273.657 113.156 287.487 105.72C301.317 98.2835 316.906 95.4189 332.265 97.4914C347.624 99.5638 362.058 106.479 373.726 117.356C385.393 128.233 393.765 142.577 397.775 158.561C401.785 174.544 401.25 191.442 396.238 207.1C391.227 222.757 381.967 236.464 369.638 246.472Z" fill="#3F3D56"/>
<path d="M379.401 337.178H265.554C261.933 337.174 258.461 335.635 255.902 332.898C253.342 330.161 251.904 326.45 251.904 322.581C251.904 318.711 253.342 315 255.902 312.263C258.461 309.526 261.933 307.987 265.554 307.983H379.401C381.196 307.982 382.974 308.358 384.633 309.091C386.292 309.824 387.799 310.899 389.069 312.255C390.339 313.61 391.346 315.22 392.033 316.992C392.72 318.763 393.074 320.663 393.074 322.581C393.074 324.499 392.72 326.398 392.033 328.17C391.346 329.941 390.339 331.551 389.069 332.907C387.799 334.262 386.292 335.337 384.633 336.07C382.974 336.803 381.196 337.179 379.401 337.178Z" fill="#3FFF2E"/>
<path d="M379.401 382.222H265.554C261.933 382.218 258.461 380.678 255.902 377.94C253.342 375.201 251.904 371.488 251.904 367.617C251.904 363.746 253.342 360.033 255.902 357.294C258.461 354.556 261.933 353.015 265.554 353.012H379.401C381.196 353.01 382.974 353.387 384.633 354.12C386.292 354.854 387.799 355.929 389.069 357.285C390.339 358.642 391.346 360.252 392.033 362.025C392.72 363.798 393.074 365.698 393.074 367.617C393.074 369.536 392.72 371.436 392.033 373.209C391.346 374.981 390.339 376.592 389.069 377.948C387.799 379.305 386.292 380.38 384.633 381.113C382.974 381.847 381.196 382.223 379.401 382.222Z" fill="#3FFF2E"/>
<path d="M318.49 446.105C326.035 446.105 332.152 439.568 332.152 431.503C332.152 423.438 326.035 416.901 318.49 416.901C310.945 416.901 304.829 423.438 304.829 431.503C304.829 439.568 310.945 446.105 318.49 446.105Z" fill="#3F3D56"/>
<path d="M385.434 431.494C378.968 428.932 370.946 424.556 365.973 419.922L369.478 430.277H344.674V432.711H369.478L365.973 443.069C370.946 438.434 378.968 434.058 385.434 431.494Z" fill="#3F3D56"/>
<path d="M251.548 431.494C258.014 428.932 266.037 424.556 271.01 419.922L267.505 430.277H292.309V432.711H267.505L271.01 443.069C266.037 438.434 258.014 434.058 251.548 431.494Z" fill="#3F3D56"/>
<path d="M699.038 498.973L0.961538 500.001C0.706523 500.001 0.461951 499.893 0.281627 499.7C0.101304 499.507 0 499.246 0 498.973C0 498.701 0.101304 498.439 0.281627 498.247C0.461951 498.054 0.706523 497.945 0.961538 497.945L699.038 496.918C699.293 496.918 699.538 497.026 699.718 497.219C699.899 497.412 700 497.673 700 497.945C700 498.218 699.899 498.48 699.718 498.672C699.538 498.865 699.293 498.973 699.038 498.973Z" fill="#3F3D56"/>
</g>
<defs>
<clipPath id="clip0">
<rect width="700" height="500" fill="white"/>
</clipPath>
</defs>
</svg>
