<svg width="230" height="359" viewBox="0 0 230 359" fill="none" xmlns="http://www.w3.org/2000/svg">
<path d="M3.78582 125.942C3.78582 125.942 3.60114 150.474 4.10753 170.944C4.61392 191.414 23.0364 186.977 33.67 198.306C44.3037 209.636 17.7183 238.338 40.7078 255.036C63.6974 271.735 85.7913 254.703 84.7983 276.086C83.8054 297.469 81.3061 305.335 107.067 303.542C132.827 301.749 139.921 285.005 147.668 303.172C155.416 321.339 160.755 327.285 185.636 319.588C210.518 311.892 222.31 316.825 222.31 316.825C222.31 316.825 229.596 310.067 221.804 305.265C214.013 300.463 215.808 301.151 220.253 285.025C224.698 268.899 198.907 277.389 188.761 263.146C178.615 248.904 201.765 245.521 183.415 231.593C165.064 217.665 147.342 253.132 146.936 225.972C146.53 198.811 160.335 193.774 140.443 189.68C120.551 185.585 98.7848 193.833 102.783 177.472C106.781 161.111 116.457 145.941 98.6261 150.831C80.7948 155.721 60.0042 171.314 59.9433 156.852C59.8824 142.39 67.7799 129.346 49.797 128.683C31.8141 128.021 3.78582 125.942 3.78582 125.942Z" fill="#68E1FD"/>
<path d="M3.78582 125.942C3.78582 125.942 3.60114 150.474 4.10753 170.944C4.61392 191.414 23.0364 186.977 33.67 198.306C44.3037 209.636 17.7183 238.338 40.7078 255.036C63.6974 271.735 85.7913 254.703 84.7983 276.086C83.8054 297.469 81.3061 305.335 107.067 303.542C132.827 301.749 139.921 285.005 147.668 303.172C155.416 321.339 160.755 327.285 185.636 319.588C210.518 311.892 222.31 316.825 222.31 316.825C222.31 316.825 229.596 310.067 221.804 305.265C214.013 300.463 215.808 301.151 220.253 285.025C224.698 268.899 198.907 277.389 188.761 263.146C178.615 248.904 201.765 245.521 183.415 231.593C165.064 217.665 147.342 253.132 146.936 225.972C146.53 198.811 160.335 193.774 140.443 189.68C120.551 185.585 98.7848 193.833 102.783 177.472C106.781 161.111 116.457 145.941 98.6261 150.831C80.7948 155.721 60.0042 171.314 59.9433 156.852C59.8824 142.39 67.7799 129.346 49.797 128.683C31.8141 128.021 3.78582 125.942 3.78582 125.942Z" fill="url(#paint0_linear)"/>
<path d="M214.176 307.387C214.176 307.387 128.522 274.685 84.375 234.453C40.2277 194.222 -25.3055 95.6947 -28.0378 42.9158L-23.5782 39.5455C-23.5782 39.5455 20.148 245.056 214.176 307.387Z" fill="#3FFF2E"/>
<defs>
<linearGradient id="paint0_linear" x1="-28534.5" y1="-47210.4" x2="-43506" y2="-43585.5" gradientUnits="userSpaceOnUse">
<stop offset="0.01"/>
<stop offset="0.13" stop-opacity="0.69"/>
<stop offset="1" stop-opacity="0"/>
</linearGradient>
</defs>
</svg>
