<svg width="289" height="352" viewBox="0 0 289 352" fill="none" xmlns="http://www.w3.org/2000/svg">
<path d="M203.095 160.504C203.326 171.755 208.134 188.034 209.155 199.255C210.175 210.475 209.531 222.32 203.864 232.036C198.196 241.752 186.462 248.601 175.59 245.679C173.186 244.809 170.729 244.097 168.233 243.547C166.356 243.427 164.476 243.73 162.732 244.434C160.989 245.139 159.427 246.227 158.162 247.618C156.897 249.009 155.961 250.667 155.425 252.47C154.888 254.272 154.764 256.173 155.061 258.031C157.479 268.6 140.406 276.916 129.744 275.043C122.01 273.685 114.525 268.032 107.035 270.452C98.1709 273.32 96.0184 285.435 88.1574 290.441C78.1613 296.809 65.623 288.994 54.9288 283.967C40.8498 277.506 25.0149 275.961 9.96642 279.58C23.6939 272.568 34.6157 261.082 40.9309 247.018C44.5136 238.983 46.5826 230.16 51.3504 222.851C56.0385 216.07 62.8071 211.002 70.6344 208.411C78.4617 205.821 86.9227 205.848 94.7402 208.49C92.2671 204.459 91.0019 199.805 91.0949 195.08C91.1879 190.355 92.6352 185.758 95.2648 181.835C97.8944 177.912 101.596 174.827 105.929 172.948C110.263 171.069 115.046 170.475 119.711 171.235C124.269 171.974 128.557 173.964 133.14 174.499C137.722 175.034 143.063 173.535 144.948 169.34C147.99 162.622 140.298 155.432 141.096 148.055C141.893 140.677 151.721 136.95 158.995 139.188C166.268 141.427 171.676 147.388 177.546 152.406C186.462 160.136 191.945 164.571 203.095 160.504Z" fill="#68E1FD"/>
<path d="M201.878 162.173C202.109 173.423 208.134 188.034 209.155 199.255C210.175 210.475 209.531 222.32 203.863 232.036C198.196 241.752 186.462 248.601 175.59 245.679C173.186 244.809 170.729 244.097 168.233 243.547C166.356 243.427 164.476 243.73 162.732 244.434C160.989 245.139 159.427 246.227 158.162 247.618C156.897 249.009 155.961 250.667 155.425 252.47C154.888 254.272 154.764 256.173 155.061 258.031C157.479 268.6 140.406 276.916 129.744 275.043C122.01 273.685 114.525 268.033 107.035 270.452C98.1709 273.32 96.0184 285.435 88.1574 290.441C78.1613 296.809 65.623 288.994 54.9288 283.967C40.8498 277.506 25.0149 275.961 9.96642 279.58C23.6939 272.568 34.6157 261.082 40.9309 247.018C44.5136 238.983 46.5826 230.16 51.3504 222.851C56.0385 216.07 62.8071 211.002 70.6344 208.411C78.4617 205.821 86.9227 205.848 94.7401 208.49C92.2671 204.459 91.0019 199.805 91.0949 195.08C91.1879 190.355 92.6352 185.758 95.2647 181.835C97.8943 177.912 101.596 174.827 105.929 172.948C110.263 171.069 115.046 170.475 119.711 171.235C124.269 171.974 128.557 173.964 133.14 174.499C137.722 175.034 143.063 173.535 144.948 169.34C147.99 162.622 140.298 155.432 141.096 148.055C141.893 140.677 151.721 136.95 158.995 139.189C166.268 141.427 171.676 147.388 177.546 152.406C186.462 160.136 190.743 166.256 201.878 162.173Z" fill="url(#paint0_linear)"/>
<path d="M125.315 230.574L374.759 12.6706L374.128 4.73455e-06L125.315 230.574Z" fill="#3FFF2E"/>
<defs>
<linearGradient id="paint0_linear" x1="157.362" y1="276.714" x2="81.1096" y2="194.039" gradientUnits="userSpaceOnUse">
<stop offset="0.01" stop-color="#6CFF5F"/>
<stop offset="0.9999" stop-opacity="0.69"/>
<stop offset="1" stop-opacity="0"/>
</linearGradient>
</defs>
</svg>
