<svg width="560" height="550" viewBox="0 0 560 550" fill="none" xmlns="http://www.w3.org/2000/svg">
<g clip-path="url(#clip0)">
<path d="M510.908 549.451V494.294C510.908 494.294 532.071 533.398 510.908 549.451Z" fill="#F1F1F1"/>
<path d="M512.215 549.442L472.212 512.141C472.212 512.141 514.884 522.751 512.215 549.442Z" fill="#F1F1F1"/>
<path d="M371.122 243.371L158.844 369.39C158.101 369.83 157.216 369.953 156.384 369.731C155.552 369.509 154.841 368.962 154.406 368.208L17.8975 130.976C17.4644 130.221 17.3436 129.323 17.5618 128.478C17.78 127.633 18.3192 126.91 19.0612 126.469L231.34 0.449794C232.083 0.00988628 232.967 -0.112722 233.799 0.108868C234.631 0.330458 235.342 0.878152 235.777 1.63179L372.286 238.864C372.719 239.619 372.84 240.517 372.621 241.362C372.403 242.207 371.864 242.93 371.122 243.371Z" fill="white"/>
<path d="M371.122 243.371L158.844 369.39C158.101 369.83 157.216 369.953 156.384 369.731C155.552 369.509 154.841 368.962 154.406 368.208L17.8975 130.976C17.4644 130.221 17.3436 129.323 17.5618 128.478C17.78 127.633 18.3192 126.91 19.0612 126.469L231.34 0.449794C232.083 0.00988628 232.967 -0.112722 233.799 0.108868C234.631 0.330458 235.342 0.878152 235.777 1.63179L372.286 238.864C372.719 239.619 372.84 240.517 372.621 241.362C372.403 242.207 371.864 242.93 371.122 243.371ZM19.7159 127.606C19.2707 127.871 18.9471 128.305 18.8162 128.812C18.6853 129.319 18.7578 129.858 19.0177 130.311L155.527 367.543C155.787 367.995 156.214 368.324 156.713 368.457C157.212 368.59 157.743 368.516 158.189 368.252L370.467 242.234C370.913 241.969 371.236 241.535 371.367 241.028C371.498 240.521 371.426 239.982 371.166 239.529L234.657 2.29676C234.396 1.84456 233.969 1.51592 233.47 1.38297C232.971 1.25001 232.44 1.32359 231.994 1.58756L19.7159 127.606Z" fill="#3F3D56"/>
<path d="M156.169 151.231L103.52 182.487C102.777 182.926 101.892 183.049 101.06 182.827C100.229 182.606 99.5172 182.058 99.0824 181.305L68.3107 127.828C67.8776 127.073 67.7568 126.175 67.975 125.33C68.1932 124.485 68.7324 123.762 69.4744 123.321L122.124 92.0653C122.867 91.6254 123.751 91.5027 124.583 91.7243C125.415 91.9459 126.126 92.4936 126.561 93.2473L157.333 146.724C157.766 147.479 157.887 148.377 157.669 149.222C157.45 150.067 156.911 150.79 156.169 151.231ZM70.1291 124.458C69.6839 124.723 69.3603 125.157 69.2294 125.664C69.0985 126.171 69.171 126.71 69.4309 127.163L100.203 180.64C100.464 181.092 100.89 181.42 101.389 181.553C101.889 181.686 102.419 181.613 102.865 181.349L155.515 150.093C155.96 149.828 156.283 149.395 156.414 148.888C156.545 148.381 156.473 147.842 156.213 147.389L125.441 93.9123C125.18 93.4601 124.753 93.1314 124.254 92.9985C123.755 92.8655 123.224 92.9391 122.779 93.2031L70.1291 124.458Z" fill="#F2F2F2"/>
<path d="M144.811 166.751L92.1616 198.006C91.4929 198.402 90.6969 198.513 89.9482 198.313C89.1996 198.114 88.5594 197.621 88.168 196.943L57.3962 143.466C57.0064 142.787 56.8978 141.978 57.0941 141.218C57.2905 140.457 57.7758 139.807 58.4436 139.409L111.093 108.154C111.762 107.758 112.558 107.648 113.306 107.847C114.055 108.047 114.695 108.54 115.087 109.218L145.858 162.695C146.248 163.374 146.357 164.182 146.161 164.943C145.964 165.703 145.479 166.354 144.811 166.751Z" fill="#3FFF2E"/>
<path d="M271.89 126.42L107.22 224.176C106.552 224.573 105.755 224.684 105.006 224.484C104.257 224.285 103.617 223.791 103.227 223.112C102.836 222.433 102.727 221.624 102.923 220.864C103.12 220.103 103.605 219.453 104.274 219.056L268.944 121.3C269.275 121.103 269.641 120.975 270.02 120.922C270.4 120.869 270.787 120.893 271.157 120.992C271.528 121.09 271.876 121.262 272.182 121.498C272.487 121.733 272.744 122.027 272.937 122.364C273.131 122.7 273.257 123.071 273.309 123.457C273.361 123.843 273.338 124.235 273.241 124.612C273.143 124.989 272.974 125.342 272.742 125.653C272.511 125.963 272.221 126.223 271.89 126.42Z" fill="#CCCCCC"/>
<path d="M242.271 167.664L117.368 241.812C117.037 242.009 116.671 242.137 116.292 242.19C115.912 242.243 115.525 242.219 115.155 242.12C114.406 241.921 113.765 241.427 113.375 240.748C112.984 240.069 112.875 239.26 113.071 238.5C113.268 237.739 113.754 237.089 114.422 236.692L239.325 162.544C239.656 162.347 240.022 162.219 240.401 162.166C240.781 162.113 241.168 162.137 241.538 162.235C241.909 162.334 242.257 162.506 242.563 162.742C242.868 162.977 243.125 163.271 243.318 163.607C243.512 163.944 243.638 164.315 243.69 164.701C243.742 165.087 243.719 165.479 243.622 165.856C243.524 166.233 243.355 166.586 243.123 166.896C242.892 167.206 242.602 167.467 242.271 167.664V167.664Z" fill="#CCCCCC"/>
<path d="M234.011 61.8975L161.198 105.123C160.529 105.52 159.733 105.631 158.984 105.431C158.235 105.232 157.595 104.738 157.204 104.059C156.813 103.38 156.704 102.571 156.901 101.811C157.097 101.05 157.583 100.4 158.252 100.003L231.065 56.7774C231.733 56.3806 232.529 56.2697 233.278 56.4692C233.649 56.568 233.997 56.74 234.303 56.9754C234.608 57.2108 234.865 57.505 235.058 57.8412C235.252 58.1774 235.378 58.549 235.43 58.9348C235.482 59.3206 235.459 59.713 235.362 60.0897C235.264 60.4663 235.095 60.8199 234.863 61.13C234.632 61.4402 234.342 61.701 234.011 61.8975Z" fill="#CCCCCC"/>
<path d="M225.987 90.3211L171.346 122.759C171.015 122.955 170.649 123.084 170.269 123.137C169.889 123.19 169.503 123.166 169.132 123.067C168.761 122.968 168.413 122.796 168.108 122.561C167.802 122.326 167.546 122.031 167.352 121.695C167.159 121.359 167.032 120.987 166.98 120.602C166.928 120.216 166.952 119.823 167.049 119.447C167.146 119.07 167.315 118.717 167.547 118.406C167.779 118.096 168.069 117.835 168.4 117.639L223.041 85.201C223.71 84.8042 224.506 84.6933 225.255 84.8928C226.004 85.0923 226.644 85.5858 227.035 86.2648C227.425 86.9438 227.535 87.7526 227.338 88.5133C227.142 89.274 226.656 89.9243 225.987 90.3211Z" fill="#CCCCCC"/>
<path d="M292.186 161.692L127.516 259.448C126.848 259.845 126.052 259.956 125.303 259.756C124.554 259.557 123.914 259.063 123.523 258.384C123.132 257.705 123.023 256.896 123.219 256.136C123.416 255.375 123.902 254.725 124.57 254.328L289.24 156.572C289.909 156.175 290.705 156.064 291.454 156.264C292.203 156.463 292.843 156.957 293.234 157.636C293.624 158.315 293.733 159.123 293.537 159.884C293.341 160.645 292.855 161.295 292.186 161.692V161.692Z" fill="#CCCCCC"/>
<path d="M262.567 202.936L137.665 277.084C137.334 277.281 136.968 277.409 136.588 277.462C136.208 277.515 135.822 277.491 135.451 277.392C135.08 277.293 134.732 277.121 134.427 276.886C134.121 276.651 133.864 276.356 133.671 276.02C133.478 275.684 133.351 275.312 133.299 274.927C133.247 274.541 133.27 274.148 133.368 273.772C133.465 273.395 133.634 273.042 133.866 272.731C134.098 272.421 134.387 272.16 134.718 271.964L259.621 197.816C259.952 197.619 260.318 197.491 260.698 197.438C261.077 197.385 261.464 197.409 261.835 197.507C262.205 197.606 262.553 197.778 262.859 198.014C263.164 198.249 263.421 198.543 263.614 198.879C263.808 199.216 263.934 199.587 263.986 199.973C264.038 200.359 264.015 200.751 263.918 201.128C263.821 201.505 263.651 201.858 263.42 202.168C263.188 202.478 262.898 202.739 262.567 202.936V202.936Z" fill="#CCCCCC"/>
<path d="M312.483 196.964L147.813 294.72C147.482 294.917 147.116 295.045 146.736 295.098C146.356 295.151 145.97 295.127 145.599 295.028C145.228 294.929 144.88 294.757 144.575 294.522C144.269 294.287 144.013 293.992 143.819 293.656C143.626 293.32 143.499 292.948 143.447 292.563C143.395 292.177 143.418 291.784 143.516 291.408C143.613 291.031 143.782 290.678 144.014 290.367C144.246 290.057 144.535 289.796 144.866 289.6L309.536 191.844C309.867 191.647 310.233 191.519 310.613 191.466C310.993 191.413 311.379 191.437 311.75 191.536C312.121 191.634 312.469 191.806 312.774 192.042C313.08 192.277 313.336 192.571 313.53 192.908C313.723 193.244 313.85 193.615 313.902 194.001C313.954 194.387 313.931 194.779 313.833 195.156C313.736 195.533 313.567 195.886 313.335 196.196C313.103 196.507 312.814 196.767 312.483 196.964Z" fill="#CCCCCC"/>
<path d="M322.631 214.6L157.961 312.356C157.63 312.552 157.264 312.681 156.884 312.734C156.504 312.787 156.118 312.763 155.747 312.664C155.376 312.565 155.028 312.393 154.723 312.158C154.418 311.923 154.161 311.628 153.967 311.292C153.774 310.956 153.648 310.584 153.595 310.199C153.543 309.813 153.567 309.42 153.664 309.044C153.761 308.667 153.931 308.314 154.162 308.003C154.394 307.693 154.684 307.432 155.015 307.236L319.684 209.48C320.015 209.283 320.381 209.155 320.761 209.102C321.141 209.049 321.527 209.073 321.898 209.172C322.269 209.27 322.617 209.442 322.922 209.678C323.228 209.913 323.485 210.207 323.678 210.544C323.871 210.88 323.998 211.251 324.05 211.637C324.102 212.023 324.079 212.415 323.981 212.792C323.884 213.169 323.715 213.522 323.483 213.833C323.251 214.143 322.962 214.403 322.631 214.6Z" fill="#CCCCCC"/>
<path d="M269.38 283.255C271.668 280.518 273.727 277.593 275.536 274.509C277.159 271.727 278.751 268.752 279.109 265.489C279.292 264.1 279.149 262.686 278.693 261.363C278.236 260.04 277.479 258.845 276.482 257.876C275.519 256.974 274.298 256.407 272.996 256.256C271.695 256.106 270.38 256.38 269.241 257.04C268.09 257.711 267.138 258.686 266.488 259.862C265.837 261.038 265.512 262.371 265.546 263.719C265.639 265.203 266.062 266.647 266.781 267.943C267.501 269.239 268.499 270.353 269.702 271.202C274.569 274.783 282.17 274.596 287.358 271.871C293.201 268.8 296.22 260.768 291.629 255.269C290.675 254.126 289.086 255.404 289.325 256.638C289.628 258.304 290.547 259.79 291.892 260.792C293.238 261.793 294.909 262.236 296.565 262.028C298.221 261.82 299.736 260.978 300.801 259.673C301.866 258.369 302.401 256.701 302.296 255.009L300.232 256.234C302.762 257.373 305.543 257.814 308.294 257.514C311.045 257.215 313.671 256.184 315.905 254.527C317.011 253.711 317.998 252.742 318.838 251.647C319.849 250.309 321.545 249.444 322.919 248.48L332.821 241.531C334.278 240.508 332.893 238.072 331.424 239.103L322.457 245.397C320.962 246.445 319.458 247.481 317.973 248.543C316.911 249.303 316.258 250.528 315.292 251.43C313.463 253.101 311.203 254.21 308.778 254.627C306.352 255.043 303.859 254.751 301.591 253.784C301.379 253.669 301.142 253.61 300.902 253.615C300.663 253.619 300.428 253.686 300.221 253.809C300.014 253.932 299.841 254.107 299.719 254.317C299.598 254.527 299.532 254.766 299.527 255.009C299.636 256.018 299.349 257.031 298.727 257.825C298.105 258.62 297.199 259.133 296.206 259.252C295.213 259.372 294.215 259.088 293.427 258.463C292.639 257.838 292.127 256.922 292.001 255.915L289.696 257.283C292.658 260.83 290.686 266.27 287.274 268.65C283.458 271.312 277.821 271.774 273.52 270.12C272.465 269.751 271.496 269.165 270.674 268.399C269.852 267.633 269.194 266.703 268.742 265.667C268.322 264.731 268.203 263.685 268.4 262.676C268.597 261.668 269.1 260.748 269.839 260.045C270.48 259.402 271.341 259.038 272.241 259.028C273.141 259.018 274.01 259.364 274.664 259.993C275.376 260.731 275.898 261.636 276.185 262.628C276.472 263.62 276.514 264.668 276.308 265.68C275.865 268.497 274.331 271.095 272.905 273.501C271.277 276.243 269.435 278.848 267.398 281.291C266.256 282.664 268.226 284.642 269.38 283.255L269.38 283.255Z" fill="#3FFF2E"/>
<path d="M293.957 350.109C294.196 350.358 294.414 350.626 294.612 350.91L325.275 350.148L328.853 343.509L339.423 347.682L334.215 360.062C333.794 361.062 333.066 361.896 332.138 362.44C331.211 362.983 330.135 363.206 329.072 363.076L294.428 358.825C293.61 359.876 292.497 360.649 291.237 361.042C289.977 361.435 288.628 361.428 287.372 361.024C286.115 360.619 285.009 359.836 284.201 358.777C283.394 357.719 282.922 356.436 282.85 355.099C282.778 353.762 283.108 352.434 283.797 351.292C284.486 350.15 285.501 349.248 286.707 348.707C287.912 348.165 289.252 348.009 290.547 348.26C291.842 348.51 293.032 349.155 293.957 350.109Z" fill="#FFB7B7"/>
<path d="M393.917 539.259H383.834L379.037 499.758L393.918 499.759L393.917 539.259Z" fill="#FFB7B7"/>
<path d="M396.488 549.186L363.978 549.185V548.767C363.978 545.359 365.311 542.09 367.684 539.68C370.057 537.269 373.275 535.915 376.631 535.915H376.632L396.488 535.916L396.488 549.186Z" fill="#2F2E41"/>
<path d="M302.364 539.032L293.092 535.008L303.958 496.769L317.642 502.707L302.364 539.032Z" fill="#FFB7B7"/>
<path d="M300.889 549.186L270.993 536.214L271.155 535.83C272.473 532.695 274.964 530.221 278.078 528.951C281.192 527.681 284.676 527.72 287.762 529.059L287.763 529.059L306.022 536.983L300.889 549.186Z" fill="#2F2E41"/>
<path d="M344.909 358.666L344.179 370.666L365.492 372.983L387.791 375.406L381.227 357.184L344.909 358.666Z" fill="#FFB7B7"/>
<path d="M343.508 370.82L335.229 312.196L349.579 307.419L353.794 301.548L374.305 302.781L377.316 309.632L388.253 314.881L386.572 346.586L387.798 373.108L343.508 370.82Z" fill="#2F2E41"/>
<path d="M338.298 355.11L323.701 349.178L323.763 348.915C323.826 348.649 330.038 322.28 330.863 318.042C331.723 313.628 334.862 312.407 334.995 312.358L335.093 312.321L340.869 314.107L343.406 334.354L338.298 355.11Z" fill="#2F2E41"/>
<path d="M309.874 532.089L290.443 528.041L321.498 441.003L332.127 411.315C332.127 411.315 338.868 387.512 341.914 378.3L343.752 365.94L387.262 370.832C387.262 370.832 399.414 388.959 395.722 418.506L397.392 529.559L377.962 530.571L361.687 418.568L333.123 479.967C333.123 479.967 324.12 506.169 317.679 511.848L309.874 532.089Z" fill="#2F2E41"/>
<path d="M369.813 374.954C370.155 374.946 370.498 374.965 370.837 375.011L391.135 351.654L388.774 344.476L398.975 339.44L404.371 351.736C404.806 352.729 404.913 353.839 404.675 354.9C404.437 355.96 403.867 356.913 403.05 357.616L376.426 380.53C376.629 381.853 376.431 383.208 375.857 384.413C375.284 385.619 374.363 386.619 373.216 387.28C372.069 387.941 370.752 388.232 369.439 388.114C368.125 387.996 366.879 387.475 365.864 386.619C364.85 385.764 364.116 384.615 363.76 383.326C363.404 382.036 363.443 380.667 363.872 379.401C364.3 378.135 365.098 377.031 366.16 376.237C367.221 375.442 368.495 374.995 369.813 374.954Z" fill="#FFB7B7"/>
<path d="M389.515 353.927L381.048 333.697L384.35 319.605L387.908 315.039C388.169 314.926 388.45 314.869 388.733 314.872C389.017 314.874 389.297 314.937 389.555 315.055C390.868 315.591 391.985 317.235 392.877 319.942L400.812 342.9L389.515 353.927Z" fill="#2F2E41"/>
<path d="M345.584 294.052V278.8C345.584 273.38 347.704 268.182 351.477 264.349C355.251 260.516 360.369 258.363 365.705 258.363C371.042 258.363 376.16 260.516 379.933 264.349C383.707 268.182 385.827 273.38 385.827 278.8V294.052C385.826 294.78 385.541 295.478 385.034 295.992C384.527 296.507 383.84 296.797 383.124 296.797H348.287C347.57 296.797 346.883 296.507 346.377 295.992C345.87 295.478 345.585 294.78 345.584 294.052Z" fill="#2F2E41"/>
<path d="M361.571 296.442C369.718 296.442 376.323 289.734 376.323 281.458C376.323 273.183 369.718 266.474 361.571 266.474C353.423 266.474 346.818 273.183 346.818 281.458C346.818 289.734 353.423 296.442 361.571 296.442Z" fill="#FFB7B7"/>
<path d="M340.824 280.02C340.829 275.734 342.507 271.625 345.491 268.594C348.475 265.563 352.521 263.858 356.741 263.854H359.744C363.964 263.858 368.01 265.563 370.994 268.594C373.978 271.625 375.656 275.734 375.661 280.02V280.325H369.314L367.149 274.169L366.716 280.325H363.436L362.344 277.219L362.126 280.325H340.824L340.824 280.02Z" fill="#2F2E41"/>
<path d="M360.119 298.512C359.821 298.103 359.643 297.616 359.605 297.108C359.568 296.6 359.673 296.091 359.907 295.641C363.09 289.492 367.546 278.132 361.631 271.125L361.206 270.622H378.376V296.806L362.778 299.601C362.62 299.63 362.46 299.644 362.3 299.644C361.874 299.644 361.455 299.542 361.075 299.345C360.696 299.148 360.368 298.863 360.119 298.512Z" fill="#2F2E41"/>
<path d="M159.821 530.631L168.932 533.939L185.829 499.814L172.381 494.933L159.821 530.631Z" fill="#9F616A"/>
<path d="M154.34 538.759L158.56 526.766L176.504 533.28C179.535 534.384 182.011 536.664 183.388 539.62C184.766 542.575 184.933 545.966 183.853 549.046L183.72 549.424L154.34 538.759Z" fill="#2F2E41"/>
<path d="M219.073 539.785L228.749 539.784L233.353 501.875L219.071 501.876L219.073 539.785Z" fill="#9F616A"/>
<path d="M216.604 536.576L235.66 536.575H235.661C237.256 536.575 238.835 536.894 240.309 537.514C241.782 538.134 243.121 539.043 244.248 540.188C245.376 541.334 246.271 542.693 246.881 544.19C247.491 545.686 247.805 547.29 247.805 548.91V549.311L216.605 549.312L216.604 536.576Z" fill="#2F2E41"/>
<path d="M197.02 297.591L201.228 289.145C201.228 289.145 216.905 293.134 218.33 302.363L197.02 297.591Z" fill="#F1F1F1"/>
<path d="M179.656 394.165L191.1 459.031L160.713 513.614L178.867 520.829L209.649 467.919L213.595 453.488L215.963 528.846L232.335 528.341L239.841 457.975L227.801 392.561L179.656 394.165Z" fill="#2F2E41"/>
<path d="M201.38 409.499C184.568 409.499 173.894 406.233 173.654 406.181L173.267 406.097L182.024 364.859L182.419 326.82C182.419 310.7 192.864 298.816 194.313 297.719C194.557 296.741 195.009 295.828 195.636 295.045C196.263 294.262 197.051 293.628 197.944 293.186C201.429 291.58 205.686 293.507 205.865 293.59L218.644 298.457L218.704 298.637C218.858 299.098 235.69 355.222 235.69 355.222C235.69 355.222 234.671 404.26 234.316 405.867C234.316 405.867 210.722 409.499 201.38 409.499Z" fill="#3F3D56"/>
<path d="M214.299 286.486C223.838 286.486 231.57 278.631 231.57 268.943C231.57 259.254 223.838 251.4 214.299 251.4C204.76 251.4 197.027 259.254 197.027 268.943C197.027 278.631 204.76 286.486 214.299 286.486Z" fill="#9F616A"/>
<path opacity="0.2" d="M195.041 329.931L225.258 372.752L229.72 352.755L195.041 329.931Z" fill="black"/>
<path d="M289.776 359.067C288.927 359.75 287.94 360.235 286.885 360.489C285.831 360.742 284.734 360.758 283.673 360.534C282.612 360.311 281.613 359.854 280.744 359.196C279.876 358.537 279.16 357.693 278.648 356.724L252.64 360.952L258.274 348.282L282.108 346.209C283.769 345.443 285.649 345.322 287.392 345.869C289.135 346.416 290.62 347.594 291.565 349.179C292.51 350.764 292.85 352.646 292.52 354.468C292.191 356.291 291.215 357.927 289.776 359.067H289.776Z" fill="#9F616A"/>
<path d="M259.613 347.561L268.958 346.63L271.548 359.871L259.789 360.082L259.613 347.561Z" fill="#F1F1F1"/>
<path d="M267.274 364.485L221.506 360.346L198.396 323.015L198.324 322.685C197.669 319.635 198.128 316.448 199.617 313.717C201.105 310.986 203.521 308.899 206.414 307.845C209.307 306.791 212.478 306.843 215.336 307.99C218.194 309.137 220.544 311.302 221.946 314.08L235.512 340.957L262.891 345.161L267.274 364.485Z" fill="#3F3D56"/>
<path d="M199.587 284.174L213.923 284.697C214.797 284.728 217.168 275.15 217.479 273.163C217.724 271.869 218.425 270.71 219.45 269.903C220.475 269.096 221.754 268.695 223.049 268.775C224.122 268.878 226.828 266.842 229.62 264.431C234.921 259.853 234.645 251.255 228.822 247.387C228.663 247.281 228.507 247.185 228.353 247.098C224.68 245.009 220.382 244.308 216.172 244.254C212.356 244.206 208.432 244.694 205.07 246.528C199.042 249.817 195.835 257.005 195.553 263.949C195.271 270.893 197.463 277.682 199.95 284.157" fill="#2F2E41"/>
<path d="M558.951 550H0.75067C0.55158 550 0.360644 549.92 0.219866 549.777C0.0790877 549.634 0 549.44 0 549.238C0 549.035 0.0790877 548.841 0.219866 548.698C0.360644 548.555 0.55158 548.475 0.75067 548.475H559.249C559.448 548.475 559.639 548.555 559.78 548.698C559.921 548.841 560 549.035 560 549.238C560 549.659 559.365 550 558.951 550Z" fill="#CBCBCB"/>
</g>
<defs>
<clipPath id="clip0">
<rect width="560" height="550" fill="white"/>
</clipPath>
</defs>
</svg>
